<?xml version="1.0" encoding="utf-8"?>
<!-- Generator: Adobe Illustrator 16.0.3, SVG Export Plug-In . SVG Version: 6.00 Build 0)  -->
<!DOCTYPE svg PUBLIC "-//W3C//DTD SVG 1.1//EN" "http://www.w3.org/Graphics/SVG/1.1/DTD/svg11.dtd">
<svg version="1.1" xmlns="http://www.w3.org/2000/svg" xmlns:xlink="http://www.w3.org/1999/xlink" x="0px" y="0px"
	 width="84.586px" height="84.241px" viewBox="0 0 84.586 84.241" enable-background="new 0 0 84.586 84.241" xml:space="preserve">
<g id="_x35_">
	<g>
		<path fill-rule="evenodd" clip-rule="evenodd" fill="#EF5A70" d="M34.188,2.688l-2.693,25.594l36.837-16.744
			C59.027,3.627,46.419,0.226,34.188,2.688L34.188,2.688z"/>
		<path fill-rule="evenodd" clip-rule="evenodd" fill="#ED1B25" d="M28.901,3.984c-1.1,0.398-2.197,0.822-3.299,1.315
			C14.915,10.159,7.364,19.137,3.97,29.513l21.092,15.119L28.901,3.984z"/>
		<path fill-rule="evenodd" clip-rule="evenodd" fill="#FABA1C" d="M12.354,69.041l23.512-10.668L2.671,34.583
			c-0.467,2.457-0.707,4.961-0.709,7.486v0.049c0,5.555,1.154,11.195,3.598,16.581C7.331,62.574,9.649,66.039,12.354,69.041
			L12.354,69.041z"/>
		<path fill-rule="evenodd" clip-rule="evenodd" fill="#009E4F" d="M55.316,80.189c1.23-0.428,2.463-0.904,3.658-1.447
			c10.951-4.971,18.6-14.266,21.869-24.951L59.633,39.213L55.316,80.189z"/>
		<path fill-rule="evenodd" clip-rule="evenodd" fill="#00ADED" d="M50.259,81.553l2.711-25.593L16.132,72.703
			C25.423,80.613,38.03,84.016,50.259,81.553L50.259,81.553z"/>
		<path fill-rule="evenodd" clip-rule="evenodd" fill="#C6569E" d="M82.059,48.72L48.899,25.933l23.538-10.703
			c2.625,2.957,4.84,6.339,6.566,10.113C82.467,32.925,83.352,41.054,82.059,48.72L82.059,48.72z"/>
		<path fill-rule="evenodd" clip-rule="evenodd" fill="#7C1228" d="M27.382,19.738C5.263,34.587,15.88,69.009,42.294,69.009
			c26.396,0,37.044-34.396,14.911-49.271C48.259,13.729,36.325,13.732,27.382,19.738L27.382,19.738z"/>
		<path id="Arrow_Left_4_" fill="#FFFFFF" d="M23.369,57.021c0.014,0,0.029,0,0.046-0.001c0.692-0.022,1.129-0.56,1.188-1.25
			c0.047-0.508,1.41-12.796,20.589-12.782l0.043,7.856c0,0.529,0.304,1.012,0.785,1.238c0.473,0.227,1.043,0.157,1.451-0.181
			l17.754-14.707c0.317-0.261,0.5-0.649,0.5-1.06c-0.002-0.411-0.186-0.8-0.504-1.06L47.469,20.505
			c-0.409-0.335-0.974-0.398-1.452-0.175c-0.477,0.227-0.781,0.708-0.781,1.236l-0.043,7.684
			c-7.957,0.253-14.118,2.813-18.112,7.486c-6.5,7.606-5.051,18.661-4.982,19.12C22.199,56.527,22.691,57.021,23.369,57.021z"/>
	</g>
</g>
<g id="Layer_1">
</g>
</svg>
