<?xml version="1.0" encoding="utf-8"?>
<!-- Generator: Adobe Illustrator 16.0.3, SVG Export Plug-In . SVG Version: 6.00 Build 0)  -->
<!DOCTYPE svg PUBLIC "-//W3C//DTD SVG 1.1//EN" "http://www.w3.org/Graphics/SVG/1.1/DTD/svg11.dtd">
<svg version="1.1" xmlns="http://www.w3.org/2000/svg" xmlns:xlink="http://www.w3.org/1999/xlink" x="0px" y="0px"
	 width="84.586px" height="84.241px" viewBox="0 0 84.586 84.241" enable-background="new 0 0 84.586 84.241" xml:space="preserve">
<g id="_x35_">
	<g>
		<path fill-rule="evenodd" clip-rule="evenodd" fill="#EF5A70" d="M34.188,2.688l-2.693,25.594l36.837-16.744
			C59.027,3.627,46.418,0.226,34.188,2.688L34.188,2.688z"/>
		<path fill-rule="evenodd" clip-rule="evenodd" fill="#ED1B25" d="M28.9,3.984c-1.1,0.398-2.197,0.822-3.298,1.315
			C14.914,10.159,7.363,19.137,3.969,29.513l21.092,15.119L28.9,3.984z"/>
		<path fill-rule="evenodd" clip-rule="evenodd" fill="#FABA1C" d="M12.354,69.041l23.512-10.668L2.67,34.583
			c-0.466,2.457-0.706,4.961-0.708,7.486v0.049c0,5.555,1.154,11.195,3.597,16.581C7.33,62.574,9.648,66.039,12.354,69.041
			L12.354,69.041z"/>
		<path fill-rule="evenodd" clip-rule="evenodd" fill="#009E4F" d="M55.316,80.189c1.23-0.428,2.463-0.904,3.658-1.447
			c10.951-4.971,18.6-14.266,21.869-24.951L59.633,39.213L55.316,80.189z"/>
		<path fill-rule="evenodd" clip-rule="evenodd" fill="#00ADED" d="M50.259,81.553l2.71-25.593L16.132,72.703
			C25.422,80.613,38.029,84.016,50.259,81.553L50.259,81.553z"/>
		<path fill-rule="evenodd" clip-rule="evenodd" fill="#C6569E" d="M82.059,48.72l-33.16-22.788l23.539-10.703
			c2.625,2.957,4.84,6.339,6.566,10.113C82.467,32.925,83.352,41.054,82.059,48.72L82.059,48.72z"/>
		<path fill-rule="evenodd" clip-rule="evenodd" fill="#FFFFFF" d="M27.328,19.738C5.208,34.587,15.825,69.009,42.239,69.009
			c26.396,0,37.044-34.396,14.911-49.271C48.204,13.729,36.271,13.732,27.328,19.738L27.328,19.738z"/>
		<g>
			<path fill="#7C1228" d="M49.26,63.201c-0.474,0.236-1.346,0.43-2.618,0.576c-1.272,0.148-2.501,0.222-3.682,0.222
				c-2.427,0-4.262-0.399-5.504-1.198c-1.243-0.798-1.864-2.499-1.864-5.104v-9.763H22.189c-0.414-0.651-0.754-1.51-1.021-2.574
				c-0.267-1.065-0.399-2.131-0.399-3.195c0-2.13,0.474-3.684,1.42-4.66c0.946-0.976,2.219-1.464,3.816-1.464h9.586V21.13
				c0.591-0.178,1.495-0.369,2.706-0.578c1.212-0.206,2.412-0.311,3.595-0.311c2.366,0,4.187,0.415,5.459,1.243
				c1.272,0.829,1.908,2.574,1.908,5.236v9.32h13.137c0.296,0.71,0.606,1.583,0.932,2.618c0.325,1.036,0.488,2.116,0.488,3.239
				c0,2.072-0.475,3.595-1.42,4.571c-0.946,0.977-2.19,1.465-3.728,1.465H49.26V63.201z"/>
		</g>
	</g>
</g>
<g id="Layer_1">
</g>
</svg>
