<?xml version="1.0" encoding="utf-8"?>
<!-- Generator: Adobe Illustrator 16.0.3, SVG Export Plug-In . SVG Version: 6.00 Build 0)  -->
<!DOCTYPE svg PUBLIC "-//W3C//DTD SVG 1.1//EN" "http://www.w3.org/Graphics/SVG/1.1/DTD/svg11.dtd">
<svg version="1.1" xmlns="http://www.w3.org/2000/svg" xmlns:xlink="http://www.w3.org/1999/xlink" x="0px" y="0px"
	 width="84.586px" height="84.241px" viewBox="0 0 84.586 84.241" enable-background="new 0 0 84.586 84.241" xml:space="preserve">
<g id="_x35_">
	<g>
		<path fill-rule="evenodd" clip-rule="evenodd" fill="#EF5A70" d="M35.781,4.44l-2.693,25.594L69.925,13.29
			C60.62,5.379,48.012,1.978,35.781,4.44L35.781,4.44z"/>
		<path fill-rule="evenodd" clip-rule="evenodd" fill="#ED1B25" d="M30.494,5.737c-1.1,0.398-2.197,0.822-3.299,1.315
			C16.508,11.912,8.957,20.889,5.563,31.266l21.092,15.119L30.494,5.737z"/>
		<path fill-rule="evenodd" clip-rule="evenodd" fill="#FABA1C" d="M13.947,70.793l23.512-10.668L4.264,36.336
			c-0.467,2.457-0.707,4.961-0.709,7.486v0.049c0,5.555,1.154,11.195,3.598,16.581C8.924,64.326,11.242,67.791,13.947,70.793
			L13.947,70.793z"/>
		<path fill-rule="evenodd" clip-rule="evenodd" fill="#009E4F" d="M56.909,81.942c1.23-0.428,2.463-0.904,3.658-1.447
			c10.951-4.971,18.6-14.266,21.869-24.951L61.226,40.966L56.909,81.942z"/>
		<path fill-rule="evenodd" clip-rule="evenodd" fill="#00ADED" d="M51.852,83.305l2.711-25.593L17.725,74.455
			C27.016,82.366,39.623,85.768,51.852,83.305L51.852,83.305z"/>
		<path fill-rule="evenodd" clip-rule="evenodd" fill="#C6569E" d="M83.651,50.473L50.492,27.685L74.03,16.982
			c2.625,2.957,4.84,6.339,6.566,10.113C84.06,34.678,84.944,42.807,83.651,50.473L83.651,50.473z"/>
		<path fill-rule="evenodd" clip-rule="evenodd" fill="#FFFFFF" d="M28.975,21.491C6.855,36.34,17.473,70.762,43.887,70.762
			c26.396,0,37.044-34.396,14.911-49.271C49.852,15.481,37.918,15.484,28.975,21.491L28.975,21.491z"/>
		<path id="Arrow_Left_6_" fill="#7C1228" d="M24.044,60.417c0.015,0,0.031,0,0.049-0.001c0.731-0.023,1.192-0.591,1.256-1.32
			c0.049-0.536,1.489-13.519,21.751-13.504l0.046,8.3c0,0.559,0.32,1.069,0.829,1.308c0.5,0.239,1.102,0.166,1.533-0.191
			L68.265,39.47c0.335-0.275,0.528-0.686,0.528-1.12c-0.002-0.434-0.196-0.845-0.532-1.119L49.505,21.838
			c-0.433-0.354-1.028-0.421-1.534-0.185c-0.504,0.24-0.825,0.748-0.825,1.306L47.1,31.078c-8.406,0.268-14.915,2.971-19.135,7.909
			c-6.867,8.036-5.336,19.714-5.264,20.2C22.809,59.895,23.328,60.417,24.044,60.417z"/>
	</g>
</g>
<g id="Layer_1">
</g>
</svg>
