<?xml version="1.0" encoding="utf-8"?>
<!-- Generator: Adobe Illustrator 16.0.3, SVG Export Plug-In . SVG Version: 6.00 Build 0)  -->
<!DOCTYPE svg PUBLIC "-//W3C//DTD SVG 1.1//EN" "http://www.w3.org/Graphics/SVG/1.1/DTD/svg11.dtd">
<svg version="1.1" xmlns="http://www.w3.org/2000/svg" xmlns:xlink="http://www.w3.org/1999/xlink" x="0px" y="0px"
	 width="84.586px" height="84.241px" viewBox="0 0 84.586 84.241" enable-background="new 0 0 84.586 84.241" xml:space="preserve">
<g id="_x35_">
	<g>
		<path fill-rule="evenodd" clip-rule="evenodd" fill="#EF5A70" d="M34.604,2.447L31.91,28.041l36.836-16.744
			C59.441,3.386,46.832-0.015,34.604,2.447L34.604,2.447z"/>
		<path fill-rule="evenodd" clip-rule="evenodd" fill="#ED1B25" d="M29.314,3.744c-1.1,0.398-2.197,0.822-3.297,1.315
			C15.328,9.918,7.777,18.896,4.383,29.272l21.092,15.119L29.314,3.744z"/>
		<path fill-rule="evenodd" clip-rule="evenodd" fill="#FABA1C" d="M12.768,68.8l23.512-10.668L3.084,34.343
			c-0.465,2.457-0.705,4.961-0.707,7.486v0.049c0,5.555,1.154,11.195,3.596,16.581C7.744,62.333,10.063,65.798,12.768,68.8
			L12.768,68.8z"/>
		<path fill-rule="evenodd" clip-rule="evenodd" fill="#009E4F" d="M55.73,79.949c1.23-0.428,2.463-0.904,3.658-1.447
			c10.951-4.971,18.6-14.266,21.869-24.951L60.047,38.973L55.73,79.949z"/>
		<path fill-rule="evenodd" clip-rule="evenodd" fill="#00ADED" d="M50.674,81.312l2.709-25.593L16.547,72.462
			C25.836,80.373,38.443,83.775,50.674,81.312L50.674,81.312z"/>
		<path fill-rule="evenodd" clip-rule="evenodd" fill="#C6569E" d="M82.473,48.479l-33.16-22.788l23.539-10.703
			c2.625,2.957,4.84,6.339,6.566,10.113C82.881,32.685,83.766,40.813,82.473,48.479L82.473,48.479z"/>
		<path fill-rule="evenodd" clip-rule="evenodd" fill="#7C1228" d="M27.797,19.498C5.676,34.347,16.293,68.769,42.707,68.769
			c26.396,0,37.045-34.396,14.912-49.271C48.672,13.488,36.738,13.491,27.797,19.498L27.797,19.498z"/>
		<path id="Arrow_Left_1_" fill="#FFFFFF" d="M62.955,55.616c0.068-0.459,1.518-11.514-4.982-19.12
			c-3.994-4.673-10.154-7.232-18.112-7.486l-0.042-7.684c0-0.528-0.306-1.009-0.782-1.236c-0.478-0.223-1.043-0.16-1.452,0.175
			L19.832,34.834c-0.318,0.26-0.504,0.648-0.504,1.06c-0.002,0.411,0.182,0.799,0.499,1.06l17.754,14.707
			c0.407,0.338,0.979,0.408,1.452,0.181c0.48-0.226,0.785-0.709,0.785-1.238l0.042-7.856c19.179-0.014,20.542,12.274,20.589,12.782
			c0.06,0.69,0.496,1.228,1.188,1.25c0.017,0.001,0.032,0.001,0.046,0.001C62.361,56.78,62.854,56.287,62.955,55.616z"/>
	</g>
</g>
<g id="Layer_1">
</g>
</svg>
