<?xml version="1.0" encoding="utf-8"?>
<!-- Generator: Adobe Illustrator 16.0.3, SVG Export Plug-In . SVG Version: 6.00 Build 0)  -->
<!DOCTYPE svg PUBLIC "-//W3C//DTD SVG 1.1//EN" "http://www.w3.org/Graphics/SVG/1.1/DTD/svg11.dtd">
<svg version="1.1" xmlns="http://www.w3.org/2000/svg" xmlns:xlink="http://www.w3.org/1999/xlink" x="0px" y="0px"
	 width="84.586px" height="84.241px" viewBox="0 0 84.586 84.241" enable-background="new 0 0 84.586 84.241" xml:space="preserve">
<g id="_x35_">
	<path fill-rule="evenodd" clip-rule="evenodd" fill="#EF5A70" d="M34.188,2.688l-2.693,25.594l36.837-16.744
		C59.027,3.627,46.419,0.226,34.188,2.688L34.188,2.688z"/>
	<path fill-rule="evenodd" clip-rule="evenodd" fill="#ED1B25" d="M28.901,3.984c-1.1,0.398-2.197,0.822-3.299,1.315
		C14.915,10.159,7.364,19.137,3.97,29.513l21.092,15.119L28.901,3.984z"/>
	<path fill-rule="evenodd" clip-rule="evenodd" fill="#FABA1C" d="M12.354,69.041l23.512-10.668L2.671,34.583
		c-0.467,2.457-0.707,4.961-0.709,7.486v0.049c0,5.555,1.154,11.195,3.598,16.581C7.331,62.574,9.649,66.039,12.354,69.041
		L12.354,69.041z"/>
	<path fill-rule="evenodd" clip-rule="evenodd" fill="#009E4F" d="M55.316,80.189c1.23-0.428,2.463-0.904,3.658-1.447
		c10.951-4.971,18.6-14.266,21.869-24.951L59.633,39.213L55.316,80.189z"/>
	<path fill-rule="evenodd" clip-rule="evenodd" fill="#00ADED" d="M50.259,81.553l2.71-25.593L16.132,72.703
		C25.423,80.613,38.03,84.016,50.259,81.553L50.259,81.553z"/>
	<path fill-rule="evenodd" clip-rule="evenodd" fill="#C6569E" d="M82.059,48.72L48.899,25.933l23.538-10.703
		c2.625,2.957,4.84,6.339,6.566,10.113C82.467,32.925,83.352,41.054,82.059,48.72L82.059,48.72z"/>
	<path fill-rule="evenodd" clip-rule="evenodd" fill="#FFFFFF" d="M27.329,19.738C5.208,34.587,15.825,69.009,42.239,69.009
		c26.396,0,37.045-34.396,14.912-49.271C48.204,13.729,36.271,13.732,27.329,19.738L27.329,19.738z"/>
	<g>
		<path fill="#7C1228" d="M47.256,57.137c-0.338,0.169-0.959,0.306-1.865,0.411c-0.906,0.106-1.781,0.158-2.623,0.158
			c-1.729,0-3.035-0.285-3.92-0.854c-0.886-0.569-1.328-1.78-1.328-3.635v-6.955h-9.547c-0.296-0.463-0.537-1.075-0.728-1.833
			c-0.189-0.759-0.284-1.518-0.284-2.276c0-1.517,0.337-2.624,1.012-3.319c0.674-0.695,1.58-1.043,2.719-1.043h6.828V27.167
			c0.421-0.126,1.064-0.263,1.928-0.411c0.863-0.147,1.718-0.221,2.561-0.221c1.686,0,2.982,0.295,3.889,0.885
			c0.906,0.591,1.359,1.833,1.359,3.73v6.639h9.357c0.211,0.506,0.432,1.128,0.664,1.865c0.231,0.738,0.348,1.507,0.348,2.308
			c0,1.476-0.338,2.561-1.012,3.256c-0.674,0.695-1.56,1.043-2.655,1.043h-6.702V57.137z"/>
	</g>
</g>
<g id="Layer_1">
</g>
</svg>
