<?xml version="1.0" encoding="utf-8"?>
<!-- Generator: Adobe Illustrator 16.0.3, SVG Export Plug-In . SVG Version: 6.00 Build 0)  -->
<!DOCTYPE svg PUBLIC "-//W3C//DTD SVG 1.1//EN" "http://www.w3.org/Graphics/SVG/1.1/DTD/svg11.dtd">
<svg version="1.1" xmlns="http://www.w3.org/2000/svg" xmlns:xlink="http://www.w3.org/1999/xlink" x="0px" y="0px"
	 width="84.591px" height="84.24px" viewBox="0 0 84.591 84.24" enable-background="new 0 0 84.591 84.24" xml:space="preserve">
<g id="_x35_">
	<g>
		<path fill-rule="evenodd" clip-rule="evenodd" fill="#EF5A70" d="M34.191,3.927l-2.693,25.594l36.836-16.744
			C59.029,4.867,46.42,1.465,34.191,3.927L34.191,3.927z"/>
		<path fill-rule="evenodd" clip-rule="evenodd" fill="#ED1B25" d="M28.902,5.224c-1.1,0.398-2.197,0.822-3.297,1.315
			C14.916,11.399,7.365,20.376,3.971,30.753l21.092,15.119L28.902,5.224z"/>
		<path fill-rule="evenodd" clip-rule="evenodd" fill="#FABA1C" d="M12.355,70.28l23.512-10.668L2.672,35.823
			c-0.465,2.457-0.705,4.961-0.707,7.486v0.049c0,5.555,1.154,11.195,3.596,16.581C7.332,63.813,9.65,67.278,12.355,70.28
			L12.355,70.28z"/>
		<path fill-rule="evenodd" clip-rule="evenodd" fill="#009E4F" d="M55.318,81.429c1.23-0.428,2.463-0.904,3.658-1.447
			c10.951-4.971,18.6-14.266,21.869-24.951L59.635,40.453L55.318,81.429z"/>
		<path fill-rule="evenodd" clip-rule="evenodd" fill="#00ADED" d="M50.262,82.792l2.709-25.593L16.135,73.942
			C25.424,81.853,38.031,85.255,50.262,82.792L50.262,82.792z"/>
		<path fill-rule="evenodd" clip-rule="evenodd" fill="#C6569E" d="M82.061,49.96L48.9,27.172l23.539-10.703
			c2.625,2.957,4.84,6.339,6.566,10.113C82.469,34.165,83.354,42.294,82.061,49.96L82.061,49.96z"/>
		<path fill-rule="evenodd" clip-rule="evenodd" fill="#FFFFFF" d="M27.385,20.978C5.264,35.827,15.881,70.249,42.295,70.249
			c26.396,0,37.045-34.396,14.912-49.271C48.26,14.968,36.326,14.972,27.385,20.978L27.385,20.978z"/>
		<path id="Arrow_Left_2_" fill="#7C1228" d="M62.543,57.096c0.068-0.459,1.518-11.514-4.982-19.12
			c-3.994-4.673-10.154-7.232-18.113-7.486l-0.041-7.684c0-0.528-0.307-1.009-0.783-1.236c-0.477-0.223-1.043-0.16-1.451,0.175
			L19.42,36.314c-0.318,0.26-0.504,0.648-0.504,1.06c-0.002,0.411,0.182,0.799,0.498,1.06l17.754,14.707
			c0.408,0.338,0.98,0.408,1.453,0.181c0.48-0.226,0.785-0.709,0.785-1.238l0.041-7.856c19.18-0.014,20.543,12.274,20.59,12.782
			c0.059,0.69,0.496,1.228,1.188,1.25c0.018,0.001,0.033,0.001,0.047,0.001C61.949,58.261,62.441,57.767,62.543,57.096z"/>
	</g>
</g>
<g id="Layer_1">
</g>
</svg>
