<?xml version="1.0" encoding="utf-8"?>
<!-- Generator: Adobe Illustrator 16.0.3, SVG Export Plug-In . SVG Version: 6.00 Build 0)  -->
<!DOCTYPE svg PUBLIC "-//W3C//DTD SVG 1.1//EN" "http://www.w3.org/Graphics/SVG/1.1/DTD/svg11.dtd">
<svg version="1.1" xmlns="http://www.w3.org/2000/svg" xmlns:xlink="http://www.w3.org/1999/xlink" x="0px" y="0px" width="630px"
	 height="135px" viewBox="0 0 630 135" enable-background="new 0 0 630 135" xml:space="preserve">
<g id="_x35_">
	<g>
		<path fill="#FFFFFF" stroke="#680303" stroke-miterlimit="10" d="M34.648,78.093v26.627c-0.885,0.241-2.289,0.482-4.217,0.724
			s-3.816,0.361-5.663,0.361c-1.849,0-3.475-0.142-4.879-0.422c-1.407-0.28-2.591-0.783-3.555-1.506s-1.687-1.727-2.168-3.013
			c-0.482-1.283-0.723-2.971-0.723-5.06V32.188c0.883-0.16,2.289-0.38,4.217-0.663c1.928-0.28,3.774-0.421,5.542-0.421
			c1.847,0,3.474,0.141,4.88,0.421c1.404,0.283,2.59,0.783,3.554,1.507c0.964,0.723,1.687,1.728,2.169,3.012
			c0.482,1.286,0.723,2.973,0.723,5.061v19.157l25.062-28.796c5.461,0,9.377,1.023,11.747,3.072
			c2.368,2.048,3.554,4.479,3.554,7.289c0,2.09-0.523,4.058-1.566,5.904c-1.045,1.849-2.732,3.937-5.061,6.265L53.203,69.057
			c2.007,2.249,4.116,4.578,6.326,6.988c2.208,2.409,4.377,4.759,6.506,7.048c2.127,2.289,4.176,4.479,6.145,6.566
			c1.968,2.09,3.675,3.897,5.121,5.422c0,1.768-0.322,3.334-0.964,4.699c-0.644,1.367-1.506,2.53-2.591,3.494
			c-1.084,0.964-2.31,1.687-3.675,2.169c-1.367,0.481-2.813,0.723-4.337,0.723c-3.294,0-5.985-0.824-8.073-2.47
			c-2.089-1.646-4.096-3.594-6.024-5.844L34.648,78.093z"/>
		<path fill="#FFFFFF" stroke="#680303" stroke-miterlimit="10" d="M174.653,105.082c-0.804,0.24-2.069,0.481-3.795,0.723
			c-1.728,0.241-3.515,0.361-5.362,0.361c-1.768,0-3.354-0.12-4.759-0.361c-1.406-0.241-2.59-0.723-3.554-1.446
			c-0.964-0.723-1.708-1.705-2.229-2.951c-0.523-1.245-0.783-2.871-0.783-4.88V60.381c0-1.847,0.341-3.434,1.024-4.759
			c0.681-1.325,1.666-2.51,2.952-3.555c1.284-1.043,2.871-1.987,4.759-2.831c1.886-0.844,3.916-1.585,6.084-2.229
			c2.169-0.643,4.417-1.146,6.748-1.507c2.329-0.361,4.657-0.542,6.988-0.542c3.856,0,6.907,0.744,9.157,2.229
			c2.248,1.487,3.374,3.915,3.374,7.289c0,1.126-0.162,2.229-0.482,3.313c-0.322,1.084-0.723,2.068-1.205,2.952
			c-1.687,0-3.415,0.08-5.181,0.24c-1.768,0.162-3.494,0.403-5.181,0.724c-1.687,0.321-3.273,0.662-4.759,1.023
			c-1.487,0.361-2.752,0.783-3.795,1.266V105.082z"/>
		<path fill="#FFFFFF" stroke="#680303" stroke-miterlimit="10" d="M198.871,75.924c0-5.301,0.802-9.898,2.41-13.796
			c1.605-3.895,3.834-7.127,6.687-9.698c2.851-2.57,6.185-4.478,10-5.724c3.814-1.244,7.932-1.867,12.35-1.867
			c1.605,0,3.172,0.141,4.699,0.422c1.525,0.282,2.771,0.623,3.735,1.023V26.766c0.802-0.241,2.087-0.501,3.855-0.783
			c1.766-0.28,3.573-0.422,5.422-0.422c1.766,0,3.353,0.121,4.759,0.361c1.404,0.241,2.59,0.724,3.554,1.446
			s1.687,1.707,2.168,2.952c0.482,1.246,0.723,2.872,0.723,4.879v57.111c0,3.776-1.768,6.788-5.301,9.036
			c-2.331,1.526-5.343,2.873-9.037,4.036c-3.695,1.163-7.952,1.747-12.771,1.747c-5.222,0-9.9-0.723-14.037-2.169
			c-4.138-1.445-7.632-3.533-10.482-6.265c-2.852-2.73-5.021-6.004-6.506-9.82C199.613,85.063,198.871,80.743,198.871,75.924z
			 M233.089,60.863c-4.337,0-7.671,1.246-10,3.735c-2.331,2.49-3.494,6.265-3.494,11.325c0,4.981,1.084,8.735,3.253,11.266
			c2.168,2.53,5.301,3.795,9.398,3.795c1.446,0,2.75-0.22,3.916-0.662c1.164-0.44,2.067-0.943,2.711-1.506V62.309
			C237.265,61.345,235.337,60.863,233.089,60.863z"/>
		<path fill="#FFFFFF" stroke="#680303" stroke-miterlimit="10" d="M296.103,44.839c4.338,0,8.293,0.442,11.868,1.325
			c3.573,0.885,6.627,2.229,9.156,4.036c2.531,1.808,4.478,4.097,5.844,6.868c1.365,2.771,2.049,6.045,2.049,9.819v26.988
			c0,2.09-0.584,3.796-1.747,5.121c-1.165,1.325-2.551,2.47-4.157,3.434c-5.223,3.133-12.572,4.699-22.049,4.699
			c-4.258,0-8.093-0.402-11.506-1.205c-3.415-0.802-6.346-2.007-8.795-3.614c-2.451-1.605-4.337-3.654-5.663-6.145
			c-1.326-2.489-1.988-5.381-1.988-8.676c0-5.542,1.646-9.799,4.94-12.771c3.293-2.971,8.393-4.819,15.302-5.542l15.783-1.687
			v-0.844c0-2.329-1.023-3.995-3.072-5c-2.048-1.004-5-1.506-8.855-1.506c-3.053,0-6.024,0.321-8.916,0.964
			c-2.892,0.644-5.502,1.445-7.832,2.409c-1.045-0.723-1.928-1.826-2.65-3.313c-0.723-1.485-1.084-3.03-1.084-4.639
			c0-2.088,0.5-3.754,1.506-5c1.003-1.244,2.549-2.308,4.639-3.192c2.329-0.883,5.08-1.525,8.253-1.928
			C290.299,45.04,293.29,44.839,296.103,44.839z M297.066,92.189c1.365,0,2.871-0.139,4.519-0.422
			c1.646-0.28,2.871-0.662,3.675-1.145v-9.639l-8.675,0.723c-2.25,0.162-4.096,0.645-5.542,1.446
			c-1.446,0.804-2.169,2.009-2.169,3.614c0,1.608,0.621,2.912,1.868,3.916C291.985,91.688,294.094,92.189,297.066,92.189z"/>
		<path fill="#FFFFFF" stroke="#680303" stroke-miterlimit="10" d="M359.237,76.165c-3.535-1.205-6.747-2.429-9.639-3.675
			c-2.892-1.244-5.382-2.751-7.47-4.519c-2.09-1.766-3.717-3.874-4.88-6.325c-1.165-2.449-1.747-5.44-1.747-8.977
			c0-6.826,2.63-12.289,7.892-16.386c5.26-4.097,12.631-6.145,22.109-6.145c3.452,0,6.666,0.24,9.639,0.723
			c2.971,0.481,5.521,1.226,7.651,2.229c2.127,1.006,3.795,2.29,5,3.855c1.205,1.566,1.808,3.395,1.808,5.482
			c0,2.09-0.482,3.876-1.446,5.361c-0.964,1.487-2.129,2.753-3.494,3.796c-1.768-1.124-4.138-2.108-7.108-2.952
			c-2.973-0.844-6.226-1.265-9.76-1.265c-3.614,0-6.266,0.502-7.952,1.506c-1.687,1.005-2.53,2.271-2.53,3.795
			c0,1.205,0.521,2.189,1.566,2.952c1.043,0.765,2.609,1.467,4.699,2.108l6.386,2.049c7.549,2.409,13.354,5.481,17.41,9.217
			c4.055,3.735,6.085,8.816,6.085,15.241c0,6.828-2.692,12.35-8.073,16.567c-5.382,4.217-13.295,6.325-23.735,6.325
			c-3.695,0-7.13-0.301-10.302-0.903c-3.174-0.603-5.945-1.485-8.313-2.651c-2.37-1.163-4.217-2.609-5.542-4.337
			c-1.326-1.727-1.988-3.715-1.988-5.964c0-2.329,0.682-4.317,2.049-5.965c1.364-1.645,2.85-2.91,4.457-3.795
			c2.248,1.768,5,3.295,8.254,4.578c3.253,1.286,6.807,1.928,10.663,1.928c3.935,0,6.705-0.602,8.313-1.807
			c1.605-1.205,2.409-2.609,2.409-4.217c0-1.606-0.644-2.832-1.928-3.676c-1.286-0.843-3.093-1.666-5.422-2.47L359.237,76.165z"/>
		<path fill="#FFFFFF" stroke="#680303" stroke-miterlimit="10" d="M402.854,30.38c0-3.052,1.024-5.621,3.072-7.711
			c2.049-2.088,4.76-3.133,8.133-3.133c3.374,0,6.085,1.045,8.133,3.133c2.049,2.09,3.072,4.659,3.072,7.711
			c0,3.054-1.023,5.624-3.072,7.712c-2.048,2.089-4.759,3.132-8.133,3.132c-3.373,0-6.084-1.043-8.133-3.132
			C403.878,36.004,402.854,33.434,402.854,30.38z M424.3,105.082c-0.885,0.159-2.189,0.38-3.915,0.662
			c-1.729,0.28-3.476,0.422-5.241,0.422c-1.769,0-3.355-0.12-4.76-0.361c-1.406-0.241-2.59-0.723-3.554-1.446
			c-0.964-0.723-1.708-1.705-2.229-2.951c-0.523-1.245-0.783-2.871-0.783-4.88V47.489c0.883-0.16,2.188-0.38,3.916-0.663
			c1.727-0.28,3.474-0.421,5.241-0.421c1.766,0,3.353,0.12,4.759,0.361c1.404,0.241,2.591,0.723,3.555,1.445
			c0.964,0.724,1.706,1.708,2.229,2.952c0.521,1.246,0.783,2.873,0.783,4.88V105.082z"/>
		<path fill="#FFFFFF" stroke="#680303" stroke-miterlimit="10" d="M465.867,44.839c4.579,0,8.735,0.583,12.471,1.747
			c3.735,1.165,6.887,2.671,9.458,4.518c1.605,1.126,2.871,2.37,3.795,3.735c0.923,1.367,1.386,3.133,1.386,5.302v42.17
			c0,4.257-0.804,7.932-2.409,11.024c-1.608,3.091-3.796,5.663-6.566,7.711c-2.771,2.049-6.024,3.555-9.76,4.519
			s-7.731,1.445-11.988,1.445c-7.311,0-13.054-0.984-17.229-2.951c-4.178-1.97-6.266-5.162-6.266-9.579
			c0-1.849,0.381-3.476,1.145-4.88c0.763-1.406,1.627-2.47,2.591-3.192c2.329,1.284,4.959,2.368,7.892,3.253
			c2.932,0.883,5.964,1.325,9.097,1.325c4.338,0,7.79-0.723,10.362-2.169c2.569-1.445,3.855-3.774,3.855-6.988V99.9
			c-3.295,1.446-7.311,2.169-12.049,2.169c-3.614,0-7.049-0.542-10.302-1.626c-3.253-1.085-6.105-2.771-8.555-5.061
			c-2.451-2.289-4.418-5.241-5.903-8.856c-1.487-3.614-2.229-7.91-2.229-12.892c0-4.898,0.783-9.157,2.35-12.771
			s3.735-6.606,6.507-8.977c2.771-2.368,6.063-4.136,9.88-5.301C457.211,45.422,461.368,44.839,465.867,44.839z M473.338,62.309
			c-0.563-0.319-1.386-0.642-2.471-0.964c-1.084-0.319-2.43-0.481-4.036-0.481c-3.937,0-6.889,1.105-8.855,3.313
			c-1.97,2.21-2.952,5.361-2.952,9.458c0,4.659,0.982,8.013,2.952,10.061c1.967,2.048,4.477,3.072,7.53,3.072
			c3.293,0,5.904-0.763,7.832-2.289V62.309z"/>
		<path fill="#FFFFFF" stroke="#680303" stroke-miterlimit="10" d="M563.459,105.082c-0.804,0.24-2.069,0.481-3.795,0.723
			c-1.729,0.241-3.516,0.361-5.362,0.361c-1.768,0-3.354-0.12-4.759-0.361c-1.406-0.241-2.591-0.723-3.555-1.446
			c-0.964-0.723-1.707-1.705-2.229-2.951c-0.523-1.245-0.783-2.871-0.783-4.88V69.779c0-3.293-0.825-5.603-2.47-6.928
			c-1.647-1.325-3.675-1.988-6.085-1.988c-1.607,0-3.133,0.201-4.578,0.603c-1.446,0.402-2.611,0.885-3.494,1.445v42.171
			c-0.805,0.24-2.069,0.481-3.796,0.723c-1.728,0.241-3.515,0.361-5.361,0.361c-1.768,0-3.354-0.12-4.76-0.361
			c-1.406-0.241-2.59-0.723-3.554-1.446c-0.964-0.723-1.708-1.705-2.229-2.951c-0.523-1.245-0.783-2.871-0.783-4.88V26.646
			c0.884-0.16,2.188-0.381,3.916-0.663c1.727-0.28,3.474-0.422,5.241-0.422c1.766,0,3.353,0.121,4.76,0.361
			c1.404,0.241,2.59,0.724,3.554,1.446s1.706,1.707,2.229,2.952c0.521,1.246,0.783,2.872,0.783,4.879v11.809
			c1.043-0.401,2.63-0.862,4.759-1.386c2.127-0.521,4.477-0.783,7.049-0.783c7.952,0,14.157,1.987,18.615,5.964
			c4.458,3.976,6.687,9.9,6.687,17.771V105.082z"/>
		<path fill="#FFFFFF" stroke="#680303" stroke-miterlimit="10" d="M596.592,85.081c0,2.09,0.662,3.575,1.988,4.458
			c1.325,0.885,3.192,1.325,5.603,1.325c1.204,0,2.449-0.1,3.734-0.301c1.284-0.2,2.41-0.462,3.374-0.783
			c0.723,0.885,1.344,1.867,1.867,2.951c0.521,1.085,0.783,2.392,0.783,3.916c0,3.054-1.145,5.543-3.434,7.471
			s-6.325,2.892-12.108,2.892c-7.069,0-12.512-1.608-16.326-4.819c-3.816-3.212-5.724-8.435-5.724-15.664V34.959
			c0.884-0.241,2.148-0.501,3.796-0.783c1.646-0.28,3.393-0.422,5.241-0.422c3.533,0,6.284,0.623,8.253,1.867
			c1.968,1.247,2.952,3.877,2.952,7.893v7.711h15.783c0.482,0.885,0.943,1.987,1.386,3.313c0.44,1.325,0.663,2.792,0.663,4.397
			c0,2.813-0.623,4.84-1.868,6.085c-1.246,1.246-2.912,1.867-5,1.867h-10.964V85.081z"/>
	</g>
	<g>
		<path fill="#FABA1C" d="M159.107,121.531c0,0.311,0.098,0.53,0.295,0.661c0.196,0.132,0.473,0.196,0.831,0.196
			c0.178,0,0.363-0.015,0.554-0.044c0.19-0.03,0.357-0.068,0.5-0.116c0.107,0.131,0.199,0.276,0.277,0.438
			c0.077,0.161,0.116,0.354,0.116,0.58c0,0.453-0.17,0.822-0.509,1.107c-0.339,0.286-0.938,0.429-1.795,0.429
			c-1.048,0-1.855-0.238-2.42-0.714c-0.566-0.477-0.849-1.251-0.849-2.322v-7.645c0.131-0.036,0.319-0.074,0.563-0.116
			c0.244-0.042,0.503-0.063,0.777-0.063c0.524,0,0.932,0.092,1.224,0.276c0.292,0.185,0.438,0.575,0.438,1.17v1.144h2.34
			c0.071,0.131,0.14,0.295,0.206,0.491s0.098,0.414,0.098,0.651c0,0.417-0.092,0.718-0.277,0.902s-0.432,0.277-0.741,0.277h-1.625
			V121.531z"/>
		<path fill="#FABA1C" d="M171.789,124.497c-0.119,0.035-0.307,0.071-0.563,0.106c-0.256,0.036-0.521,0.054-0.795,0.054
			c-0.262,0-0.498-0.018-0.706-0.054c-0.208-0.035-0.384-0.106-0.527-0.214s-0.253-0.253-0.331-0.438
			c-0.078-0.185-0.116-0.426-0.116-0.724v-3.965c0-0.488-0.122-0.831-0.366-1.027s-0.544-0.295-0.902-0.295
			c-0.238,0-0.464,0.03-0.679,0.09s-0.387,0.131-0.518,0.214v6.252c-0.119,0.035-0.307,0.071-0.563,0.106
			c-0.256,0.036-0.521,0.054-0.795,0.054c-0.262,0-0.498-0.018-0.706-0.054c-0.208-0.035-0.384-0.106-0.527-0.214
			s-0.253-0.253-0.331-0.438c-0.078-0.185-0.116-0.426-0.116-0.724v-10.359c0.131-0.024,0.325-0.057,0.581-0.099
			s0.515-0.063,0.777-0.063c0.262,0,0.497,0.018,0.706,0.054c0.208,0.035,0.384,0.107,0.527,0.214
			c0.143,0.107,0.253,0.253,0.33,0.438c0.078,0.186,0.116,0.427,0.116,0.724v1.751c0.155-0.06,0.39-0.128,0.706-0.206
			c0.315-0.077,0.664-0.116,1.045-0.116c1.179,0,2.099,0.295,2.76,0.885c0.661,0.589,0.991,1.468,0.991,2.635V124.497z"/>
		<path fill="#FABA1C" d="M178.255,124.801c-0.703,0-1.355-0.099-1.956-0.295c-0.602-0.196-1.125-0.491-1.572-0.885
			c-0.447-0.393-0.798-0.887-1.054-1.482c-0.256-0.595-0.384-1.292-0.384-2.09c0-0.785,0.128-1.461,0.384-2.027
			c0.256-0.565,0.592-1.029,1.009-1.393s0.893-0.631,1.429-0.804c0.536-0.173,1.083-0.26,1.643-0.26
			c0.631,0,1.206,0.096,1.724,0.286c0.518,0.19,0.965,0.453,1.34,0.786s0.667,0.732,0.875,1.196
			c0.208,0.465,0.313,0.971,0.313,1.519c0,0.405-0.113,0.715-0.339,0.929c-0.227,0.215-0.542,0.352-0.947,0.411l-4.412,0.661
			c0.131,0.393,0.399,0.688,0.804,0.884s0.869,0.295,1.394,0.295c0.488,0,0.949-0.063,1.384-0.188
			c0.435-0.125,0.789-0.271,1.063-0.438c0.19,0.119,0.351,0.285,0.482,0.5c0.131,0.214,0.196,0.44,0.196,0.679
			c0,0.535-0.25,0.935-0.75,1.196c-0.381,0.203-0.81,0.34-1.286,0.411C179.118,124.765,178.671,124.801,178.255,124.801z
			 M177.754,117.78c-0.286,0-0.533,0.048-0.741,0.144s-0.378,0.217-0.509,0.366c-0.131,0.148-0.229,0.315-0.295,0.5
			s-0.104,0.372-0.116,0.563l3.055-0.5c-0.036-0.238-0.167-0.477-0.393-0.715C178.528,117.899,178.195,117.78,177.754,117.78z"/>
		<path fill="#FABA1C" d="M195.616,124.497c-0.119,0.035-0.307,0.071-0.563,0.106c-0.256,0.036-0.521,0.054-0.795,0.054
			c-0.262,0-0.498-0.018-0.706-0.054c-0.208-0.035-0.384-0.106-0.527-0.214s-0.253-0.253-0.331-0.438
			c-0.078-0.185-0.116-0.426-0.116-0.724v-3.965c0-0.488-0.122-0.831-0.366-1.027s-0.544-0.295-0.902-0.295
			c-0.238,0-0.464,0.03-0.679,0.09s-0.387,0.131-0.518,0.214v6.252c-0.119,0.035-0.307,0.071-0.563,0.106
			c-0.256,0.036-0.521,0.054-0.795,0.054c-0.262,0-0.498-0.018-0.706-0.054c-0.208-0.035-0.384-0.106-0.527-0.214
			s-0.253-0.253-0.331-0.438c-0.078-0.185-0.116-0.426-0.116-0.724v-10.359c0.131-0.024,0.325-0.057,0.581-0.099
			s0.515-0.063,0.777-0.063c0.262,0,0.497,0.018,0.706,0.054c0.208,0.035,0.384,0.107,0.527,0.214
			c0.143,0.107,0.253,0.253,0.33,0.438c0.078,0.186,0.116,0.427,0.116,0.724v1.751c0.155-0.06,0.39-0.128,0.706-0.206
			c0.315-0.077,0.664-0.116,1.045-0.116c1.179,0,2.099,0.295,2.76,0.885c0.661,0.589,0.991,1.468,0.991,2.635V124.497z"/>
		<path fill="#FABA1C" d="M197.42,113.423c0-0.453,0.152-0.834,0.456-1.144s0.706-0.465,1.206-0.465s0.902,0.155,1.206,0.465
			s0.456,0.69,0.456,1.144c0,0.452-0.152,0.833-0.456,1.143s-0.706,0.465-1.206,0.465s-0.902-0.155-1.206-0.465
			S197.42,113.875,197.42,113.423z M200.6,124.497c-0.131,0.023-0.324,0.056-0.581,0.098c-0.256,0.042-0.515,0.063-0.777,0.063
			c-0.262,0-0.497-0.018-0.706-0.054c-0.208-0.035-0.384-0.106-0.527-0.214s-0.253-0.253-0.331-0.438s-0.116-0.426-0.116-0.724
			v-7.27c0.131-0.023,0.324-0.057,0.58-0.099c0.256-0.041,0.515-0.063,0.777-0.063c0.262,0,0.497,0.018,0.706,0.054
			c0.208,0.036,0.384,0.107,0.527,0.215c0.143,0.106,0.253,0.253,0.331,0.438c0.077,0.185,0.116,0.426,0.116,0.723V124.497z"/>
		<path fill="#FABA1C" d="M209.852,121.925c0,0.905-0.34,1.613-1.019,2.125c-0.679,0.513-1.679,0.769-3,0.769
			c-0.5,0-0.965-0.036-1.394-0.107s-0.794-0.182-1.098-0.33c-0.304-0.149-0.542-0.337-0.715-0.563
			c-0.172-0.227-0.259-0.494-0.259-0.804c0-0.286,0.06-0.527,0.179-0.724c0.119-0.196,0.262-0.36,0.429-0.491
			c0.345,0.19,0.741,0.36,1.188,0.509c0.447,0.149,0.961,0.224,1.545,0.224c0.369,0,0.652-0.054,0.848-0.161
			c0.197-0.107,0.295-0.25,0.295-0.429c0-0.166-0.071-0.297-0.214-0.393s-0.381-0.173-0.714-0.232l-0.536-0.107
			c-1.036-0.202-1.807-0.521-2.313-0.955c-0.506-0.435-0.759-1.057-0.759-1.867c0-0.44,0.095-0.839,0.286-1.196
			c0.19-0.357,0.458-0.655,0.804-0.894c0.345-0.237,0.759-0.422,1.241-0.554c0.482-0.131,1.015-0.196,1.599-0.196
			c0.44,0,0.854,0.033,1.242,0.099c0.387,0.065,0.723,0.163,1.009,0.295c0.286,0.131,0.512,0.301,0.679,0.509
			c0.167,0.208,0.25,0.455,0.25,0.741c0,0.274-0.051,0.509-0.152,0.705c-0.102,0.197-0.229,0.36-0.384,0.491
			c-0.095-0.06-0.238-0.122-0.429-0.188s-0.399-0.125-0.625-0.179c-0.227-0.054-0.456-0.098-0.688-0.134
			c-0.232-0.035-0.443-0.054-0.634-0.054c-0.393,0-0.697,0.045-0.911,0.134c-0.214,0.09-0.321,0.229-0.321,0.42
			c0,0.132,0.059,0.238,0.179,0.322c0.119,0.083,0.345,0.16,0.679,0.231l0.554,0.125c1.143,0.263,1.956,0.623,2.438,1.081
			C209.611,120.606,209.852,121.198,209.852,121.925z"/>
		<path fill="#FABA1C" d="M214.353,121.531c0,0.311,0.098,0.53,0.295,0.661c0.196,0.132,0.473,0.196,0.831,0.196
			c0.178,0,0.363-0.015,0.554-0.044c0.19-0.03,0.357-0.068,0.5-0.116c0.107,0.131,0.199,0.276,0.277,0.438
			c0.077,0.161,0.116,0.354,0.116,0.58c0,0.453-0.17,0.822-0.509,1.107c-0.339,0.286-0.938,0.429-1.795,0.429
			c-1.048,0-1.855-0.238-2.42-0.714c-0.566-0.477-0.849-1.251-0.849-2.322v-7.645c0.131-0.036,0.319-0.074,0.563-0.116
			c0.244-0.042,0.503-0.063,0.777-0.063c0.524,0,0.932,0.092,1.224,0.276c0.292,0.185,0.438,0.575,0.438,1.17v1.144h2.34
			c0.071,0.131,0.14,0.295,0.206,0.491s0.098,0.414,0.098,0.651c0,0.417-0.092,0.718-0.277,0.902s-0.432,0.277-0.741,0.277h-1.625
			V121.531z"/>
		<path fill="#FABA1C" d="M227.339,120.174c0,0.739-0.114,1.396-0.339,1.974c-0.227,0.578-0.545,1.063-0.956,1.456
			c-0.411,0.394-0.902,0.691-1.474,0.894c-0.571,0.202-1.208,0.304-1.911,0.304s-1.339-0.107-1.911-0.322
			c-0.571-0.214-1.063-0.521-1.474-0.92c-0.411-0.398-0.729-0.884-0.956-1.455c-0.226-0.572-0.339-1.215-0.339-1.93
			c0-0.702,0.113-1.339,0.339-1.911c0.226-0.571,0.545-1.057,0.956-1.455c0.411-0.399,0.902-0.706,1.474-0.92
			c0.572-0.215,1.208-0.322,1.911-0.322s1.34,0.11,1.911,0.331c0.572,0.221,1.063,0.53,1.474,0.929
			c0.411,0.399,0.729,0.884,0.956,1.456C227.225,118.853,227.339,119.483,227.339,120.174z M221.087,120.174
			c0,0.727,0.14,1.283,0.42,1.671c0.28,0.387,0.67,0.58,1.17,0.58s0.884-0.196,1.152-0.59c0.268-0.393,0.402-0.946,0.402-1.661
			c0-0.714-0.137-1.265-0.411-1.651c-0.274-0.388-0.661-0.581-1.161-0.581c-0.5,0-0.887,0.193-1.161,0.581
			C221.224,118.909,221.087,119.46,221.087,120.174z"/>
		<path fill="#FABA1C" d="M231.857,124.497c-0.119,0.035-0.307,0.071-0.563,0.106c-0.256,0.036-0.521,0.054-0.795,0.054
			c-0.262,0-0.498-0.018-0.706-0.054c-0.208-0.035-0.384-0.106-0.527-0.214c-0.143-0.107-0.253-0.253-0.331-0.438
			c-0.078-0.185-0.116-0.426-0.116-0.724v-5.358c0-0.273,0.051-0.509,0.152-0.706c0.101-0.196,0.247-0.372,0.438-0.526
			s0.426-0.295,0.706-0.42s0.581-0.235,0.902-0.33c0.321-0.096,0.655-0.17,1-0.224s0.69-0.08,1.036-0.08
			c0.572,0,1.024,0.11,1.357,0.33c0.333,0.221,0.5,0.581,0.5,1.081c0,0.167-0.024,0.33-0.071,0.491
			c-0.048,0.16-0.107,0.307-0.179,0.438c-0.25,0-0.506,0.012-0.768,0.035c-0.262,0.024-0.518,0.061-0.768,0.107
			c-0.25,0.048-0.485,0.099-0.706,0.152c-0.22,0.053-0.408,0.115-0.563,0.188V124.497z"/>
		<path fill="#FABA1C" d="M237.805,122.3c-0.131-0.298-0.271-0.631-0.419-1c-0.149-0.369-0.304-0.792-0.464-1.269
			c-0.161-0.476-0.328-1.021-0.5-1.635c-0.172-0.612-0.354-1.318-0.544-2.116c0.167-0.167,0.39-0.313,0.669-0.438
			s0.586-0.188,0.92-0.188c0.417,0,0.762,0.086,1.036,0.259s0.476,0.497,0.607,0.974l1.411,4.912h0.071
			c0.143-0.405,0.283-0.846,0.42-1.322c0.137-0.476,0.271-0.967,0.402-1.474c0.131-0.506,0.253-1.012,0.366-1.518
			c0.113-0.506,0.211-1.003,0.294-1.492c0.429-0.226,0.899-0.339,1.411-0.339c0.417,0,0.762,0.089,1.036,0.268
			s0.411,0.488,0.411,0.929c0,0.322-0.042,0.694-0.125,1.116c-0.083,0.423-0.193,0.873-0.331,1.349
			c-0.137,0.477-0.297,0.968-0.482,1.474c-0.185,0.507-0.378,1.004-0.581,1.492c-0.203,0.488-0.411,0.949-0.625,1.384
			s-0.423,0.825-0.625,1.17c-0.333,0.584-0.643,1.06-0.929,1.429s-0.56,0.658-0.822,0.867c-0.262,0.208-0.524,0.351-0.786,0.429
			c-0.262,0.077-0.536,0.115-0.822,0.115c-0.5,0-0.905-0.148-1.215-0.446s-0.494-0.685-0.554-1.161
			c0.381-0.298,0.762-0.628,1.144-0.991c0.381-0.363,0.726-0.735,1.036-1.116c-0.203-0.06-0.419-0.199-0.652-0.42
			C238.333,123.321,238.079,122.907,237.805,122.3z"/>
		<path fill="#FABA1C" d="M258.847,120.174c0,0.739-0.114,1.396-0.339,1.974c-0.227,0.578-0.545,1.063-0.956,1.456
			c-0.411,0.394-0.902,0.691-1.474,0.894c-0.571,0.202-1.208,0.304-1.911,0.304s-1.339-0.107-1.911-0.322
			c-0.571-0.214-1.063-0.521-1.474-0.92c-0.411-0.398-0.729-0.884-0.956-1.455c-0.226-0.572-0.339-1.215-0.339-1.93
			c0-0.702,0.113-1.339,0.339-1.911c0.226-0.571,0.545-1.057,0.956-1.455c0.411-0.399,0.902-0.706,1.474-0.92
			c0.572-0.215,1.208-0.322,1.911-0.322s1.34,0.11,1.911,0.331c0.572,0.221,1.063,0.53,1.474,0.929
			c0.411,0.399,0.729,0.884,0.956,1.456C258.733,118.853,258.847,119.483,258.847,120.174z M252.595,120.174
			c0,0.727,0.14,1.283,0.42,1.671c0.28,0.387,0.67,0.58,1.17,0.58s0.884-0.196,1.152-0.59c0.268-0.393,0.402-0.946,0.402-1.661
			c0-0.714-0.137-1.265-0.411-1.651c-0.274-0.388-0.661-0.581-1.161-0.581c-0.5,0-0.887,0.193-1.161,0.581
			C252.731,118.909,252.595,119.46,252.595,120.174z"/>
		<path fill="#FABA1C" d="M260.365,115.834c0-0.607,0.104-1.128,0.313-1.563c0.208-0.435,0.491-0.791,0.848-1.071
			c0.357-0.279,0.777-0.485,1.259-0.616s0.997-0.196,1.545-0.196c0.881,0,1.53,0.116,1.947,0.348
			c0.417,0.232,0.625,0.629,0.625,1.188c0,0.238-0.051,0.452-0.152,0.643s-0.211,0.334-0.331,0.429
			c-0.226-0.06-0.461-0.109-0.706-0.151s-0.527-0.063-0.848-0.063c-0.512,0-0.911,0.086-1.197,0.259s-0.429,0.474-0.429,0.902v0.571
			h2.929c0.072,0.131,0.14,0.295,0.206,0.491s0.098,0.414,0.098,0.651c0,0.417-0.092,0.718-0.277,0.902s-0.432,0.277-0.741,0.277
			h-2.054v5.662c-0.119,0.035-0.307,0.071-0.563,0.106c-0.256,0.036-0.521,0.054-0.795,0.054c-0.262,0-0.498-0.018-0.706-0.054
			c-0.208-0.035-0.384-0.106-0.527-0.214s-0.253-0.253-0.331-0.438c-0.078-0.185-0.116-0.426-0.116-0.724V115.834z"/>
		<path fill="#FABA1C" d="M274.618,121.531c0,0.311,0.098,0.53,0.295,0.661c0.196,0.132,0.473,0.196,0.831,0.196
			c0.178,0,0.363-0.015,0.554-0.044c0.19-0.03,0.357-0.068,0.5-0.116c0.107,0.131,0.199,0.276,0.277,0.438
			c0.077,0.161,0.116,0.354,0.116,0.58c0,0.453-0.17,0.822-0.509,1.107c-0.339,0.286-0.938,0.429-1.795,0.429
			c-1.048,0-1.855-0.238-2.42-0.714c-0.566-0.477-0.849-1.251-0.849-2.322v-7.645c0.131-0.036,0.319-0.074,0.563-0.116
			c0.244-0.042,0.503-0.063,0.777-0.063c0.524,0,0.932,0.092,1.224,0.276c0.292,0.185,0.438,0.575,0.438,1.17v1.144h2.34
			c0.071,0.131,0.14,0.295,0.206,0.491s0.098,0.414,0.098,0.651c0,0.417-0.092,0.718-0.277,0.902s-0.432,0.277-0.741,0.277h-1.625
			V121.531z"/>
		<path fill="#FABA1C" d="M287.3,124.497c-0.119,0.035-0.307,0.071-0.563,0.106c-0.256,0.036-0.521,0.054-0.795,0.054
			c-0.262,0-0.498-0.018-0.706-0.054c-0.208-0.035-0.384-0.106-0.527-0.214s-0.253-0.253-0.331-0.438
			c-0.078-0.185-0.116-0.426-0.116-0.724v-3.965c0-0.488-0.122-0.831-0.366-1.027s-0.544-0.295-0.902-0.295
			c-0.238,0-0.464,0.03-0.679,0.09s-0.387,0.131-0.518,0.214v6.252c-0.119,0.035-0.307,0.071-0.563,0.106
			c-0.256,0.036-0.521,0.054-0.795,0.054c-0.262,0-0.498-0.018-0.706-0.054c-0.208-0.035-0.384-0.106-0.527-0.214
			s-0.253-0.253-0.331-0.438c-0.078-0.185-0.116-0.426-0.116-0.724v-10.359c0.131-0.024,0.325-0.057,0.581-0.099
			s0.515-0.063,0.777-0.063c0.262,0,0.497,0.018,0.706,0.054c0.208,0.035,0.384,0.107,0.527,0.214
			c0.143,0.107,0.253,0.253,0.33,0.438c0.078,0.186,0.116,0.427,0.116,0.724v1.751c0.155-0.06,0.39-0.128,0.706-0.206
			c0.315-0.077,0.664-0.116,1.045-0.116c1.179,0,2.099,0.295,2.76,0.885c0.661,0.589,0.991,1.468,0.991,2.635V124.497z"/>
		<path fill="#FABA1C" d="M293.767,124.801c-0.703,0-1.354-0.099-1.956-0.295s-1.125-0.491-1.572-0.885
			c-0.446-0.393-0.798-0.887-1.054-1.482c-0.256-0.595-0.384-1.292-0.384-2.09c0-0.785,0.128-1.461,0.384-2.027
			c0.256-0.565,0.593-1.029,1.01-1.393c0.416-0.363,0.893-0.631,1.429-0.804s1.083-0.26,1.644-0.26c0.631,0,1.205,0.096,1.724,0.286
			c0.518,0.19,0.964,0.453,1.339,0.786c0.376,0.333,0.667,0.732,0.876,1.196c0.208,0.465,0.313,0.971,0.313,1.519
			c0,0.405-0.113,0.715-0.34,0.929c-0.226,0.215-0.542,0.352-0.946,0.411l-4.412,0.661c0.131,0.393,0.399,0.688,0.804,0.884
			c0.405,0.196,0.869,0.295,1.394,0.295c0.488,0,0.949-0.063,1.384-0.188s0.789-0.271,1.063-0.438c0.19,0.119,0.351,0.285,0.482,0.5
			c0.131,0.214,0.196,0.44,0.196,0.679c0,0.535-0.25,0.935-0.75,1.196c-0.382,0.203-0.811,0.34-1.286,0.411
			C294.63,124.765,294.183,124.801,293.767,124.801z M293.267,117.78c-0.286,0-0.533,0.048-0.741,0.144
			c-0.209,0.096-0.379,0.217-0.51,0.366c-0.131,0.148-0.229,0.315-0.294,0.5c-0.066,0.185-0.104,0.372-0.116,0.563l3.054-0.5
			c-0.035-0.238-0.167-0.477-0.393-0.715C294.04,117.899,293.707,117.78,293.267,117.78z"/>
		<path fill="#FABA1C" d="M307.502,124.247c-0.167,0.143-0.394,0.259-0.679,0.348c-0.286,0.09-0.626,0.134-1.019,0.134
			c-0.488,0-0.911-0.068-1.269-0.205c-0.356-0.137-0.596-0.33-0.714-0.58c-0.132-0.286-0.283-0.738-0.456-1.357
			s-0.342-1.298-0.509-2.037c-0.167-0.737-0.324-1.488-0.474-2.25c-0.148-0.762-0.265-1.435-0.348-2.019
			c0.166-0.167,0.39-0.313,0.67-0.438c0.279-0.125,0.586-0.188,0.92-0.188c0.416,0,0.759,0.092,1.026,0.276
			c0.269,0.186,0.432,0.504,0.491,0.956c0.119,0.905,0.221,1.652,0.304,2.241c0.083,0.59,0.152,1.072,0.206,1.447
			c0.053,0.375,0.095,0.661,0.125,0.857c0.029,0.196,0.056,0.354,0.08,0.474h0.071c0.036-0.19,0.099-0.468,0.188-0.831
			c0.09-0.363,0.193-0.777,0.313-1.241c0.119-0.465,0.244-0.968,0.375-1.51c0.131-0.541,0.262-1.08,0.394-1.616
			c0.237-0.131,0.473-0.232,0.705-0.304s0.521-0.107,0.866-0.107c0.417,0,0.774,0.065,1.072,0.197
			c0.297,0.131,0.488,0.333,0.571,0.606c0.143,0.524,0.279,1.033,0.411,1.527c0.131,0.494,0.25,0.953,0.356,1.376
			c0.107,0.423,0.203,0.798,0.286,1.125s0.143,0.587,0.179,0.777h0.089c0.132-0.917,0.26-1.87,0.385-2.858s0.241-1.994,0.348-3.019
			c0.215-0.131,0.44-0.227,0.679-0.286s0.477-0.089,0.715-0.089c0.417,0,0.762,0.089,1.036,0.268
			c0.273,0.179,0.411,0.488,0.411,0.929c0,0.191-0.03,0.477-0.09,0.857c-0.06,0.382-0.137,0.811-0.232,1.286
			c-0.095,0.477-0.205,0.977-0.33,1.501c-0.125,0.523-0.25,1.029-0.375,1.518s-0.244,0.929-0.357,1.322
			c-0.113,0.393-0.212,0.696-0.295,0.911c-0.167,0.143-0.423,0.259-0.768,0.348c-0.346,0.09-0.715,0.134-1.107,0.134
			c-1.001,0-1.59-0.25-1.769-0.75c-0.071-0.214-0.161-0.484-0.268-0.813c-0.107-0.327-0.221-0.688-0.34-1.081
			c-0.119-0.393-0.232-0.8-0.339-1.223c-0.107-0.423-0.197-0.831-0.269-1.224c-0.083,0.417-0.185,0.848-0.304,1.295
			c-0.119,0.446-0.241,0.881-0.366,1.304s-0.241,0.81-0.348,1.161C307.645,123.75,307.561,124.032,307.502,124.247z"/>
		<path fill="#FABA1C" d="M325.667,120.174c0,0.739-0.113,1.396-0.339,1.974c-0.227,0.578-0.545,1.063-0.956,1.456
			c-0.41,0.394-0.901,0.691-1.474,0.894c-0.571,0.202-1.209,0.304-1.911,0.304s-1.34-0.107-1.911-0.322
			c-0.571-0.214-1.063-0.521-1.474-0.92c-0.411-0.398-0.729-0.884-0.955-1.455c-0.227-0.572-0.34-1.215-0.34-1.93
			c0-0.702,0.113-1.339,0.34-1.911c0.226-0.571,0.544-1.057,0.955-1.455c0.411-0.399,0.902-0.706,1.474-0.92
			c0.571-0.215,1.209-0.322,1.911-0.322s1.34,0.11,1.911,0.331c0.572,0.221,1.063,0.53,1.474,0.929
			c0.411,0.399,0.729,0.884,0.956,1.456C325.554,118.853,325.667,119.483,325.667,120.174z M319.416,120.174
			c0,0.727,0.14,1.283,0.419,1.671c0.28,0.387,0.67,0.58,1.17,0.58c0.501,0,0.885-0.196,1.152-0.59
			c0.269-0.393,0.402-0.946,0.402-1.661c0-0.714-0.138-1.265-0.411-1.651c-0.274-0.388-0.661-0.581-1.161-0.581
			s-0.887,0.193-1.161,0.581C319.553,118.909,319.416,119.46,319.416,120.174z"/>
		<path fill="#FABA1C" d="M330.187,124.497c-0.12,0.035-0.308,0.071-0.563,0.106c-0.256,0.036-0.521,0.054-0.795,0.054
			c-0.262,0-0.497-0.018-0.705-0.054c-0.209-0.035-0.384-0.106-0.527-0.214c-0.143-0.107-0.253-0.253-0.33-0.438
			s-0.116-0.426-0.116-0.724v-5.358c0-0.273,0.051-0.509,0.152-0.706c0.101-0.196,0.247-0.372,0.438-0.526s0.426-0.295,0.705-0.42
			c0.28-0.125,0.581-0.235,0.902-0.33c0.321-0.096,0.654-0.17,1-0.224s0.69-0.08,1.036-0.08c0.571,0,1.024,0.11,1.357,0.33
			c0.333,0.221,0.5,0.581,0.5,1.081c0,0.167-0.023,0.33-0.071,0.491c-0.048,0.16-0.107,0.307-0.179,0.438
			c-0.25,0-0.506,0.012-0.768,0.035c-0.263,0.024-0.519,0.061-0.769,0.107c-0.25,0.048-0.485,0.099-0.705,0.152
			c-0.221,0.053-0.408,0.115-0.563,0.188V124.497z"/>
		<path fill="#FABA1C" d="M337.58,124.497c-0.131,0.023-0.324,0.056-0.58,0.098s-0.516,0.063-0.777,0.063s-0.497-0.018-0.705-0.054
			c-0.209-0.035-0.384-0.106-0.527-0.214c-0.143-0.107-0.253-0.253-0.33-0.438c-0.078-0.185-0.116-0.426-0.116-0.724v-10.359
			c0.131-0.024,0.324-0.057,0.58-0.099s0.516-0.063,0.777-0.063s0.497,0.018,0.706,0.054c0.208,0.035,0.384,0.107,0.526,0.214
			c0.143,0.107,0.253,0.253,0.33,0.438c0.078,0.186,0.116,0.427,0.116,0.724V124.497z"/>
		<path fill="#FABA1C" d="M339.117,120.174c0-0.785,0.119-1.467,0.357-2.045c0.238-0.577,0.568-1.057,0.991-1.438
			s0.917-0.664,1.482-0.849s1.176-0.277,1.831-0.277c0.238,0,0.47,0.021,0.696,0.063c0.227,0.042,0.411,0.093,0.554,0.152v-2.894
			c0.119-0.036,0.31-0.074,0.571-0.116c0.263-0.042,0.53-0.063,0.805-0.063c0.262,0,0.497,0.018,0.705,0.054
			c0.208,0.035,0.384,0.107,0.527,0.214c0.143,0.107,0.25,0.253,0.321,0.438c0.071,0.186,0.107,0.427,0.107,0.724v8.467
			c0,0.56-0.263,1.006-0.786,1.34c-0.346,0.226-0.792,0.426-1.34,0.598c-0.548,0.173-1.179,0.26-1.894,0.26
			c-0.774,0-1.468-0.107-2.081-0.322c-0.613-0.214-1.131-0.523-1.554-0.929c-0.423-0.404-0.744-0.89-0.965-1.455
			C339.228,121.529,339.117,120.889,339.117,120.174z M344.19,117.941c-0.644,0-1.138,0.185-1.483,0.554
			c-0.345,0.369-0.518,0.929-0.518,1.679c0,0.739,0.161,1.295,0.482,1.671c0.321,0.375,0.786,0.563,1.394,0.563
			c0.214,0,0.407-0.033,0.58-0.099s0.307-0.14,0.401-0.224v-3.929C344.809,118.013,344.523,117.941,344.19,117.941z"/>
		<path fill="#FABA1C" d="M353.46,113.423c0-0.453,0.151-0.834,0.455-1.144s0.706-0.465,1.206-0.465s0.902,0.155,1.206,0.465
			s0.455,0.69,0.455,1.144c0,0.452-0.151,0.833-0.455,1.143s-0.706,0.465-1.206,0.465s-0.902-0.155-1.206-0.465
			S353.46,113.875,353.46,113.423z M356.64,124.497c-0.132,0.023-0.325,0.056-0.581,0.098s-0.515,0.063-0.776,0.063
			c-0.263,0-0.498-0.018-0.706-0.054c-0.208-0.035-0.384-0.106-0.526-0.214c-0.144-0.107-0.254-0.253-0.331-0.438
			s-0.116-0.426-0.116-0.724v-7.27c0.131-0.023,0.324-0.057,0.581-0.099c0.256-0.041,0.515-0.063,0.776-0.063
			s0.497,0.018,0.706,0.054c0.208,0.036,0.384,0.107,0.526,0.215c0.144,0.106,0.253,0.253,0.331,0.438
			c0.077,0.185,0.116,0.426,0.116,0.723V124.497z"/>
		<path fill="#FABA1C" d="M364.07,119.013c0-0.368-0.104-0.64-0.313-0.813c-0.209-0.172-0.491-0.259-0.849-0.259
			c-0.238,0-0.474,0.03-0.706,0.09s-0.432,0.148-0.598,0.268v6.198c-0.12,0.035-0.308,0.071-0.563,0.106
			c-0.256,0.036-0.521,0.054-0.795,0.054c-0.262,0-0.497-0.018-0.705-0.054c-0.209-0.035-0.384-0.106-0.527-0.214
			c-0.143-0.107-0.253-0.253-0.33-0.438s-0.116-0.426-0.116-0.724v-5.358c0-0.321,0.068-0.583,0.205-0.786
			c0.137-0.202,0.325-0.387,0.563-0.554c0.404-0.286,0.913-0.518,1.526-0.696s1.296-0.269,2.046-0.269
			c1.346,0,2.381,0.295,3.107,0.885c0.727,0.589,1.09,1.408,1.09,2.456v5.591c-0.119,0.035-0.307,0.071-0.563,0.106
			c-0.256,0.036-0.521,0.054-0.795,0.054c-0.262,0-0.497-0.018-0.706-0.054c-0.208-0.035-0.384-0.106-0.526-0.214
			s-0.253-0.253-0.33-0.438c-0.078-0.185-0.116-0.426-0.116-0.724V119.013z"/>
		<path fill="#FABA1C" d="M372.482,113.423c0-0.453,0.151-0.834,0.455-1.144s0.706-0.465,1.206-0.465s0.902,0.155,1.206,0.465
			s0.455,0.69,0.455,1.144c0,0.452-0.151,0.833-0.455,1.143s-0.706,0.465-1.206,0.465s-0.902-0.155-1.206-0.465
			S372.482,113.875,372.482,113.423z M375.662,124.497c-0.132,0.023-0.325,0.056-0.581,0.098s-0.515,0.063-0.776,0.063
			c-0.263,0-0.498-0.018-0.706-0.054c-0.208-0.035-0.384-0.106-0.526-0.214c-0.144-0.107-0.254-0.253-0.331-0.438
			s-0.116-0.426-0.116-0.724v-7.27c0.131-0.023,0.324-0.057,0.581-0.099c0.256-0.041,0.515-0.063,0.776-0.063
			s0.497,0.018,0.706,0.054c0.208,0.036,0.384,0.107,0.526,0.215c0.144,0.106,0.253,0.253,0.331,0.438
			c0.077,0.185,0.116,0.426,0.116,0.723V124.497z"/>
		<path fill="#FABA1C" d="M381.753,115.565c0.488,0,0.967,0.069,1.438,0.206s0.878,0.342,1.224,0.616
			c0.357-0.238,0.759-0.435,1.206-0.59c0.446-0.154,0.985-0.232,1.616-0.232c0.452,0,0.896,0.061,1.331,0.179
			c0.435,0.119,0.821,0.307,1.161,0.563c0.339,0.257,0.609,0.596,0.813,1.019c0.202,0.423,0.304,0.938,0.304,1.545v5.627
			c-0.119,0.035-0.307,0.071-0.563,0.106c-0.257,0.036-0.521,0.054-0.795,0.054c-0.263,0-0.498-0.018-0.706-0.054
			c-0.208-0.035-0.384-0.106-0.526-0.214c-0.144-0.107-0.254-0.253-0.331-0.438s-0.116-0.426-0.116-0.724v-4.269
			c0-0.357-0.101-0.616-0.304-0.777c-0.202-0.161-0.476-0.241-0.821-0.241c-0.167,0-0.346,0.039-0.536,0.116
			s-0.333,0.158-0.429,0.241c0.012,0.048,0.019,0.092,0.019,0.134s0,0.08,0,0.116v5.948c-0.132,0.035-0.325,0.071-0.581,0.106
			c-0.256,0.036-0.515,0.054-0.776,0.054c-0.263,0-0.498-0.018-0.706-0.054c-0.208-0.035-0.384-0.106-0.527-0.214
			c-0.143-0.107-0.253-0.253-0.33-0.438s-0.116-0.426-0.116-0.724v-4.269c0-0.357-0.11-0.616-0.33-0.777
			c-0.221-0.161-0.485-0.241-0.795-0.241c-0.215,0-0.399,0.033-0.554,0.099c-0.155,0.065-0.286,0.128-0.393,0.188v6.27
			c-0.12,0.035-0.308,0.071-0.563,0.106c-0.256,0.036-0.521,0.054-0.795,0.054c-0.262,0-0.497-0.018-0.705-0.054
			c-0.209-0.035-0.384-0.106-0.527-0.214c-0.143-0.107-0.253-0.253-0.33-0.438s-0.116-0.426-0.116-0.724v-5.395
			c0-0.321,0.068-0.577,0.205-0.768s0.325-0.369,0.563-0.536c0.404-0.286,0.907-0.518,1.509-0.696S381.098,115.565,381.753,115.565z
			"/>
		<path fill="#FABA1C" d="M396.274,115.565c0.644,0,1.229,0.066,1.76,0.197c0.529,0.131,0.982,0.33,1.357,0.598
			c0.375,0.269,0.664,0.607,0.866,1.019s0.304,0.896,0.304,1.456v4.001c0,0.31-0.087,0.563-0.259,0.759
			c-0.173,0.196-0.378,0.366-0.616,0.509c-0.774,0.465-1.864,0.697-3.269,0.697c-0.632,0-1.2-0.061-1.706-0.179
			c-0.507-0.119-0.941-0.298-1.304-0.536c-0.364-0.238-0.644-0.542-0.84-0.911s-0.295-0.798-0.295-1.286
			c0-0.821,0.244-1.452,0.732-1.894c0.488-0.439,1.244-0.714,2.269-0.821l2.34-0.25v-0.125c0-0.346-0.151-0.592-0.455-0.741
			c-0.304-0.148-0.741-0.224-1.313-0.224c-0.452,0-0.893,0.048-1.321,0.144c-0.429,0.095-0.816,0.214-1.161,0.356
			c-0.155-0.106-0.286-0.271-0.394-0.491c-0.106-0.22-0.16-0.449-0.16-0.688c0-0.31,0.074-0.557,0.223-0.741
			c0.149-0.185,0.378-0.342,0.688-0.473c0.345-0.132,0.753-0.227,1.224-0.286C395.414,115.596,395.857,115.565,396.274,115.565z
			 M396.418,122.586c0.202,0,0.425-0.021,0.669-0.063c0.244-0.042,0.426-0.099,0.545-0.17v-1.429l-1.286,0.106
			c-0.333,0.024-0.606,0.096-0.821,0.215c-0.214,0.119-0.321,0.298-0.321,0.536s0.092,0.432,0.276,0.58
			C395.664,122.512,395.977,122.586,396.418,122.586z"/>
		<path fill="#FABA1C" d="M406.652,115.565c0.679,0,1.295,0.087,1.849,0.26s1.021,0.396,1.402,0.67
			c0.238,0.166,0.426,0.351,0.563,0.554c0.137,0.202,0.205,0.464,0.205,0.785v6.252c0,0.631-0.119,1.176-0.356,1.635
			c-0.239,0.458-0.563,0.839-0.974,1.143c-0.411,0.304-0.894,0.527-1.447,0.67s-1.146,0.215-1.777,0.215
			c-1.083,0-1.935-0.146-2.554-0.438c-0.619-0.291-0.929-0.765-0.929-1.42c0-0.273,0.056-0.515,0.169-0.723
			c0.113-0.209,0.241-0.366,0.385-0.474c0.345,0.19,0.734,0.351,1.17,0.482c0.435,0.131,0.884,0.196,1.349,0.196
			c0.643,0,1.154-0.107,1.536-0.321c0.381-0.215,0.571-0.56,0.571-1.036v-0.286c-0.488,0.215-1.084,0.321-1.786,0.321
			c-0.536,0-1.045-0.08-1.527-0.24c-0.482-0.161-0.905-0.411-1.269-0.751c-0.363-0.339-0.654-0.776-0.875-1.313
			s-0.33-1.173-0.33-1.911c0-0.727,0.116-1.357,0.348-1.894c0.232-0.536,0.554-0.979,0.965-1.331
			c0.411-0.351,0.899-0.612,1.465-0.785S405.985,115.565,406.652,115.565z M407.76,118.156c-0.083-0.048-0.205-0.096-0.366-0.144
			c-0.161-0.047-0.36-0.071-0.599-0.071c-0.583,0-1.021,0.164-1.313,0.491c-0.292,0.328-0.438,0.795-0.438,1.402
			c0,0.69,0.146,1.188,0.438,1.491s0.664,0.456,1.116,0.456c0.488,0,0.875-0.113,1.161-0.34V118.156z"/>
		<path fill="#FABA1C" d="M417.137,124.801c-0.703,0-1.354-0.099-1.956-0.295s-1.125-0.491-1.572-0.885
			c-0.446-0.393-0.798-0.887-1.054-1.482c-0.256-0.595-0.384-1.292-0.384-2.09c0-0.785,0.128-1.461,0.384-2.027
			c0.256-0.565,0.593-1.029,1.01-1.393c0.416-0.363,0.893-0.631,1.429-0.804s1.083-0.26,1.644-0.26c0.631,0,1.205,0.096,1.724,0.286
			c0.518,0.19,0.964,0.453,1.339,0.786c0.376,0.333,0.667,0.732,0.876,1.196c0.208,0.465,0.313,0.971,0.313,1.519
			c0,0.405-0.113,0.715-0.34,0.929c-0.226,0.215-0.542,0.352-0.946,0.411l-4.412,0.661c0.131,0.393,0.399,0.688,0.804,0.884
			c0.405,0.196,0.869,0.295,1.394,0.295c0.488,0,0.949-0.063,1.384-0.188s0.789-0.271,1.063-0.438c0.19,0.119,0.351,0.285,0.482,0.5
			c0.131,0.214,0.196,0.44,0.196,0.679c0,0.535-0.25,0.935-0.75,1.196c-0.382,0.203-0.811,0.34-1.286,0.411
			C418,124.765,417.553,124.801,417.137,124.801z M416.637,117.78c-0.286,0-0.533,0.048-0.741,0.144
			c-0.209,0.096-0.379,0.217-0.51,0.366c-0.131,0.148-0.229,0.315-0.294,0.5c-0.066,0.185-0.104,0.372-0.116,0.563l3.054-0.5
			c-0.035-0.238-0.167-0.477-0.393-0.715C417.41,117.899,417.077,117.78,416.637,117.78z"/>
		<path fill="#FABA1C" d="M429.676,121.925c0,0.905-0.339,1.613-1.018,2.125c-0.679,0.513-1.68,0.769-3.001,0.769
			c-0.5,0-0.965-0.036-1.394-0.107s-0.795-0.182-1.099-0.33c-0.304-0.149-0.542-0.337-0.714-0.563
			c-0.173-0.227-0.26-0.494-0.26-0.804c0-0.286,0.06-0.527,0.179-0.724s0.262-0.36,0.429-0.491c0.346,0.19,0.741,0.36,1.188,0.509
			c0.446,0.149,0.961,0.224,1.545,0.224c0.369,0,0.651-0.054,0.849-0.161c0.196-0.107,0.294-0.25,0.294-0.429
			c0-0.166-0.071-0.297-0.214-0.393s-0.381-0.173-0.715-0.232l-0.535-0.107c-1.036-0.202-1.808-0.521-2.313-0.955
			s-0.759-1.057-0.759-1.867c0-0.44,0.095-0.839,0.285-1.196s0.459-0.655,0.804-0.894c0.346-0.237,0.76-0.422,1.242-0.554
			c0.481-0.131,1.015-0.196,1.599-0.196c0.44,0,0.854,0.033,1.241,0.099c0.387,0.065,0.724,0.163,1.009,0.295
			c0.286,0.131,0.512,0.301,0.679,0.509s0.25,0.455,0.25,0.741c0,0.274-0.051,0.509-0.151,0.705
			c-0.102,0.197-0.229,0.36-0.384,0.491c-0.096-0.06-0.239-0.122-0.429-0.188c-0.191-0.065-0.399-0.125-0.626-0.179
			c-0.226-0.054-0.455-0.098-0.688-0.134c-0.232-0.035-0.443-0.054-0.634-0.054c-0.393,0-0.696,0.045-0.911,0.134
			c-0.214,0.09-0.321,0.229-0.321,0.42c0,0.132,0.06,0.238,0.179,0.322c0.119,0.083,0.345,0.16,0.679,0.231l0.554,0.125
			c1.143,0.263,1.956,0.623,2.438,1.081C429.435,120.606,429.676,121.198,429.676,121.925z"/>
	</g>
	<rect x="12" y="119.472" fill="#FABA1C" width="133" height="5"/>
	<g>
		<path fill-rule="evenodd" clip-rule="evenodd" fill="#EF5A70" d="M106.094,45.126l-2.139,20.311l29.232-13.289
			C125.804,45.872,115.797,43.172,106.094,45.126L106.094,45.126z"/>
		<path fill-rule="evenodd" clip-rule="evenodd" fill="#ED1B25" d="M101.896,46.154c-0.873,0.316-1.744,0.652-2.617,1.045
			c-8.482,3.855-14.475,10.98-17.168,19.215L98.85,78.412L101.896,46.154z"/>
		<path fill-rule="evenodd" clip-rule="evenodd" fill="#FABA1C" d="M88.765,97.78l18.659-8.465L81.081,70.438
			c-0.369,1.95-0.56,3.937-0.562,5.94v0.039c0,4.406,0.916,8.885,2.854,13.158C84.779,92.649,86.619,95.399,88.765,97.78
			L88.765,97.78z"/>
		<path fill-rule="evenodd" clip-rule="evenodd" fill="#009E4F" d="M122.859,106.629c0.976-0.34,1.955-0.72,2.902-1.149
			c8.69-3.944,14.761-11.321,17.355-19.799l-16.832-11.568L122.859,106.629z"/>
		<path fill-rule="evenodd" clip-rule="evenodd" fill="#00ADED" d="M118.846,107.71l2.15-20.309l-29.232,13.287
			C99.136,106.965,109.141,109.665,118.846,107.71L118.846,107.71z"/>
		<path fill-rule="evenodd" clip-rule="evenodd" fill="#C6569E" d="M144.08,81.657l-26.313-18.085l18.678-8.494
			c2.084,2.347,3.842,5.031,5.211,8.025C144.405,69.122,145.105,75.571,144.08,81.657L144.08,81.657z"/>
		<path fill-rule="evenodd" clip-rule="evenodd" fill="#FEFEFE" d="M100.691,58.656c-17.554,11.784-9.128,39.1,11.833,39.1
			c20.947,0,29.396-27.296,11.834-39.1C117.258,53.889,107.787,53.891,100.691,58.656L100.691,58.656z"/>
		<path fill-rule="evenodd" clip-rule="evenodd" fill="#D5D5D7" d="M103.578,62.989c-13.268,8.909-6.896,29.56,8.946,29.56
			c15.833,0,22.22-20.635,8.943-29.56C116.104,59.385,108.944,59.388,103.578,62.989L103.578,62.989z"/>
		<path fill-rule="evenodd" clip-rule="evenodd" fill="#5F5F5F" d="M105.387,65.708c-10.587,7.104-5.505,23.58,7.137,23.58
			c12.633,0,17.73-16.462,7.136-23.58C115.378,62.826,109.667,62.83,105.387,65.708L105.387,65.708z"/>
		<path fill-rule="evenodd" clip-rule="evenodd" fill="#434443" d="M106.228,66.965c-9.341,6.272-4.858,20.809,6.296,20.809
			c11.147,0,15.642-14.526,6.296-20.809C115.043,64.428,110.004,64.428,106.228,66.965L106.228,66.965z"/>
		<path fill-rule="evenodd" clip-rule="evenodd" fill="#22201E" d="M109.029,71.174c-5.181,3.478-2.693,11.541,3.495,11.541
			c6.183,0,8.679-8.058,3.492-11.541C113.919,69.767,111.125,69.767,109.029,71.174L109.029,71.174z"/>
		<path fill-rule="evenodd" clip-rule="evenodd" fill="#BABCBE" d="M108.547,74.298c-2.448-1.647-1.272-5.457,1.652-5.457
			c2.923,0,4.102,3.808,1.65,5.457C110.86,74.961,109.538,74.961,108.547,74.298L108.547,74.298z"/>
		<path fill-rule="evenodd" clip-rule="evenodd" fill="#FEFEFE" d="M115.345,82.641c-1.206-0.809-0.626-2.684,0.812-2.684
			c1.439,0,2.019,1.875,0.812,2.684C116.482,82.969,115.831,82.969,115.345,82.641L115.345,82.641z"/>
	</g>
</g>
<g id="Layer_1">
</g>
</svg>
