<?xml version="1.0" encoding="utf-8"?>
<!-- Generator: Adobe Illustrator 16.0.3, SVG Export Plug-In . SVG Version: 6.00 Build 0)  -->
<!DOCTYPE svg PUBLIC "-//W3C//DTD SVG 1.1//EN" "http://www.w3.org/Graphics/SVG/1.1/DTD/svg11.dtd">
<svg version="1.1" xmlns="http://www.w3.org/2000/svg" xmlns:xlink="http://www.w3.org/1999/xlink" x="0px" y="0px"
	 width="84.586px" height="84.241px" viewBox="0 0 84.586 84.241" enable-background="new 0 0 84.586 84.241" xml:space="preserve">
<g id="_x35_">
	<g>
		<path fill-rule="evenodd" clip-rule="evenodd" fill="#EF5A70" d="M68.399,11.138L46.812,25.146l36.19,18.099
			C83.297,31.036,78.008,19.096,68.399,11.138L68.399,11.138z"/>
		<path fill-rule="evenodd" clip-rule="evenodd" fill="#ED1B25" d="M64.065,7.844c-1.001-0.604-2.021-1.19-3.098-1.736
			c-10.501-5.25-22.23-5.472-32.431-1.582l1.518,25.907L64.065,7.844z"/>
		<path fill-rule="evenodd" clip-rule="evenodd" fill="#FABA1C" d="M3.087,35.911l23.086,11.564L23.778,6.707
			c-2.203,1.183-4.301,2.572-6.266,4.159l-0.037,0.031C13.158,14.391,9.5,18.836,6.85,24.125C4.953,27.938,3.719,31.92,3.087,35.911
			L3.087,35.911z"/>
		<path fill-rule="evenodd" clip-rule="evenodd" fill="#009E4F" d="M21.45,76.32c1.106,0.687,2.252,1.345,3.427,1.933
			c10.754,5.384,22.79,5.482,33.152,1.302l-2.013-25.659L21.45,76.32z"/>
		<path fill-rule="evenodd" clip-rule="evenodd" fill="#00ADED" d="M17.208,73.246l21.6-13.994L2.617,41.151
			C2.313,53.35,7.601,65.291,17.208,73.246L17.208,73.246z"/>
		<path fill-rule="evenodd" clip-rule="evenodd" fill="#C6569E" d="M62.735,77.308l-3.149-40.111l23.129,11.563
			c-0.646,3.901-1.883,7.75-3.729,11.467C75.27,67.688,69.508,73.49,62.735,77.308L62.735,77.308z"/>
		<path fill-rule="evenodd" clip-rule="evenodd" fill="#FEFEFE" d="M50.863,16.575C25.406,8.724,5.329,38.632,21.948,59.164
			c16.605,20.517,50.041,7.154,47.679-19.408C68.671,29.021,61.159,19.747,50.863,16.575L50.863,16.575z"/>
		<path id="Arrow_Left_3_" fill="#7C1228" d="M19.36,36.911c0.007,0.011,0.018,0.023,0.029,0.035
			c0.453,0.525,1.146,0.525,1.72,0.138c0.424-0.283,10.832-6.954,22.888,7.962l-6.079,4.977c-0.411,0.333-0.596,0.873-0.468,1.389
			c0.12,0.51,0.533,0.91,1.052,1.015l22.603,4.547c0.402,0.083,0.818-0.02,1.139-0.278c0.318-0.26,0.505-0.647,0.506-1.058
			l0.156-22.965c0.003-0.529-0.304-1.007-0.777-1.239c-0.476-0.228-1.042-0.162-1.453,0.171l-5.999,4.801
			c-5.203-6.025-11.068-9.205-17.214-9.369c-10.002-0.267-17.683,7.813-17.997,8.156C19.008,35.691,18.934,36.385,19.36,36.911z"/>
	</g>
</g>
<g id="Layer_1">
</g>
</svg>
