<?xml version="1.0" encoding="utf-8"?>
<!-- Generator: Adobe Illustrator 16.0.3, SVG Export Plug-In . SVG Version: 6.00 Build 0)  -->
<!DOCTYPE svg PUBLIC "-//W3C//DTD SVG 1.1//EN" "http://www.w3.org/Graphics/SVG/1.1/DTD/svg11.dtd">
<svg version="1.1" xmlns="http://www.w3.org/2000/svg" xmlns:xlink="http://www.w3.org/1999/xlink" x="0px" y="0px"
	 width="84.586px" height="84.241px" viewBox="0 0 84.586 84.241" enable-background="new 0 0 84.586 84.241" xml:space="preserve">
<g id="_x35_">
	<g>
		<path fill-rule="evenodd" clip-rule="evenodd" fill="#EF5A70" d="M34.189,2.857l-2.693,25.594l36.837-16.744
			C59.028,3.797,46.419,0.396,34.189,2.857L34.189,2.857z"/>
		<path fill-rule="evenodd" clip-rule="evenodd" fill="#ED1B25" d="M28.901,4.154c-1.1,0.398-2.197,0.822-3.298,1.315
			C14.915,10.329,7.364,19.307,3.97,29.683l21.092,15.119L28.901,4.154z"/>
		<path fill-rule="evenodd" clip-rule="evenodd" fill="#FABA1C" d="M12.354,69.21l23.512-10.668L2.671,34.753
			c-0.466,2.457-0.706,4.961-0.708,7.486v0.049c0,5.555,1.154,11.195,3.597,16.581C7.331,62.744,9.649,66.208,12.354,69.21
			L12.354,69.21z"/>
		<path fill-rule="evenodd" clip-rule="evenodd" fill="#009E4F" d="M55.317,80.359c1.23-0.428,2.463-0.904,3.658-1.447
			c10.951-4.971,18.6-14.266,21.869-24.951L59.634,39.383L55.317,80.359z"/>
		<path fill-rule="evenodd" clip-rule="evenodd" fill="#00ADED" d="M50.26,81.723l2.71-25.593L16.133,72.873
			C25.423,80.783,38.03,84.186,50.26,81.723L50.26,81.723z"/>
		<path fill-rule="evenodd" clip-rule="evenodd" fill="#C6569E" d="M82.06,48.89l-33.16-22.788l23.539-10.703
			c2.625,2.957,4.84,6.339,6.566,10.113C82.468,33.095,83.353,41.224,82.06,48.89L82.06,48.89z"/>
		<path fill-rule="evenodd" clip-rule="evenodd" fill="#7C1228" d="M27.383,19.908C5.263,34.757,15.88,69.179,42.294,69.179
			c26.396,0,37.045-34.396,14.912-49.271C48.259,13.898,36.325,13.902,27.383,19.908L27.383,19.908z"/>
		<g>
			<path fill="#FFFFFF" d="M51.098,21.819H33.964c-2.839,0-5.141,2.302-5.141,5.14v2.142c0,1.183,0.959,2.142,2.142,2.142l0,0
				c1.184,0,2.142-0.958,2.142-2.142v-2.142c0-0.473,0.384-0.856,0.857-0.856h17.134c0.474,0,0.857,0.383,0.857,0.856v30.842
				c0,0.474-0.384,0.856-0.857,0.856H33.964c-0.474,0-0.857-0.383-0.857-0.856V55.66c0-1.183-0.958-2.142-2.142-2.142l0,0
				c-1.183,0-2.142,0.959-2.142,2.142v2.142c0,2.839,2.302,5.14,5.141,5.14h17.134c2.839,0,5.141-2.301,5.141-5.14V26.959
				C56.238,24.121,53.937,21.819,51.098,21.819z"/>
			<path fill="#FFFFFF" d="M29.894,41.172l6.408-6.417c0.321-0.325,0.76-0.507,1.218-0.507c0.946,0,1.712,0.769,1.712,1.714v2.99
				h8.508c0.946,0,1.713,0.768,1.713,1.713v3.427c0,0.946-0.767,1.713-1.713,1.713h-8.508v2.99c0,0.457-0.182,0.895-0.507,1.218
				c-0.673,0.666-1.757,0.661-2.423-0.01l-6.408-6.417C29.229,42.92,29.229,41.841,29.894,41.172z"/>
		</g>
	</g>
</g>
<g id="Layer_1">
</g>
</svg>
