<?xml version="1.0" encoding="utf-8"?>
<!-- Generator: Adobe Illustrator 16.0.3, SVG Export Plug-In . SVG Version: 6.00 Build 0)  -->
<!DOCTYPE svg PUBLIC "-//W3C//DTD SVG 1.1//EN" "http://www.w3.org/Graphics/SVG/1.1/DTD/svg11.dtd">
<svg version="1.1" xmlns="http://www.w3.org/2000/svg" xmlns:xlink="http://www.w3.org/1999/xlink" x="0px" y="0px"
	 width="84.586px" height="84.241px" viewBox="0 0 84.586 84.241" enable-background="new 0 0 84.586 84.241" xml:space="preserve">
<g id="_x35_">
	<g>
		<path fill-rule="evenodd" clip-rule="evenodd" fill="#EF5A70" d="M9.851,18.351l15.213,20.757L41.075,1.947
			C28.868,2.347,17.247,8.307,9.851,18.351L9.851,18.351z"/>
		<path fill-rule="evenodd" clip-rule="evenodd" fill="#ED1B25" d="M6.808,22.867c-0.547,1.034-1.074,2.086-1.557,3.191
			C0.604,36.841,1.052,48.563,5.515,58.526l25.779-2.988L6.808,22.867z"/>
		<path fill-rule="evenodd" clip-rule="evenodd" fill="#FABA1C" d="M38.298,82.15l10.231-23.705L7.962,63.153
			c1.309,2.132,2.813,4.147,4.51,6.018l0.033,0.036c3.734,4.112,8.381,7.511,13.811,9.856C30.231,80.74,34.276,81.746,38.298,82.15
			L38.298,82.15z"/>
		<path fill-rule="evenodd" clip-rule="evenodd" fill="#009E4F" d="M77.596,61.518c0.623-1.144,1.215-2.326,1.734-3.531
			c4.766-11.042,4.178-23.065-0.586-33.173l-25.502,3.469L77.596,61.518z"/>
		<path fill-rule="evenodd" clip-rule="evenodd" fill="#00ADED" d="M74.769,65.927L59.567,45.16L43.556,82.32
			C55.751,81.93,67.371,75.973,74.769,65.927L74.769,65.927z"/>
		<path fill-rule="evenodd" clip-rule="evenodd" fill="#C6569E" d="M76.233,20.244l-39.865,5.425L46.595,1.92
			c3.933,0.423,7.846,1.438,11.66,3.071C65.918,8.276,72.037,13.7,76.233,20.244L76.233,20.244z"/>
		<path fill-rule="evenodd" clip-rule="evenodd" fill="#FEFEFE" d="M16.274,35.549C9.884,61.414,40.886,79.756,60.438,61.998
			c19.54-17.747,4.296-50.368-22.086-46.499C27.688,17.065,18.856,25.091,16.274,35.549L16.274,35.549z"/>
		<path fill-rule="evenodd" clip-rule="evenodd" fill="#FEFEFE" d="M50.264,45.508c-1.811,0.267-2.857-1.973-1.518-3.19
			c1.344-1.22,3.472,0.039,3.031,1.815C51.604,44.85,50.995,45.402,50.264,45.508L50.264,45.508z"/>
		<path id="Arrow_Left_5_" fill="#7C1228" d="M66.584,38.648c-0.258-0.386-6.617-9.543-16.543-10.804
			c-6.099-0.774-12.38,1.473-18.44,6.636l-5.197-5.66c-0.355-0.391-0.904-0.542-1.41-0.39c-0.504,0.156-0.879,0.583-0.957,1.106
			L20.69,52.257c-0.061,0.406,0.063,0.818,0.34,1.123c0.273,0.305,0.672,0.469,1.082,0.449l23.029-1.049
			c0.529-0.023,0.999-0.356,1.196-0.842c0.204-0.491,0.104-1.053-0.252-1.444l-5.249-5.845c14.187-12.904,23.458-4.725,23.834-4.38
			c0.508,0.471,1.192,0.576,1.72,0.126c0.014-0.011,0.024-0.021,0.035-0.03C66.928,39.909,66.959,39.213,66.584,38.648z"/>
	</g>
</g>
<g id="Layer_1">
</g>
</svg>
