<?xml version="1.0" encoding="utf-8"?>
<!-- Generator: Adobe Illustrator 16.0.3, SVG Export Plug-In . SVG Version: 6.00 Build 0)  -->
<!DOCTYPE svg PUBLIC "-//W3C//DTD SVG 1.1//EN" "http://www.w3.org/Graphics/SVG/1.1/DTD/svg11.dtd">
<svg version="1.1" xmlns="http://www.w3.org/2000/svg" xmlns:xlink="http://www.w3.org/1999/xlink" x="0px" y="0px"
	 width="84.586px" height="84.241px" viewBox="0 0 84.586 84.241" enable-background="new 0 0 84.586 84.241" xml:space="preserve">
<g id="_x35_">
	<g>
		<path fill-rule="evenodd" clip-rule="evenodd" fill="#EF5A70" d="M34.188,2.688l-2.693,25.594l36.837-16.744
			C59.027,3.627,46.418,0.226,34.188,2.688L34.188,2.688z"/>
		<path fill-rule="evenodd" clip-rule="evenodd" fill="#ED1B25" d="M28.9,3.984c-1.1,0.398-2.197,0.822-3.298,1.315
			C14.914,10.159,7.363,19.137,3.969,29.513l21.092,15.119L28.9,3.984z"/>
		<path fill-rule="evenodd" clip-rule="evenodd" fill="#FABA1C" d="M12.354,69.041l23.512-10.668L2.67,34.583
			c-0.466,2.457-0.706,4.961-0.708,7.486v0.049c0,5.555,1.154,11.195,3.597,16.581C7.33,62.574,9.648,66.039,12.354,69.041
			L12.354,69.041z"/>
		<path fill-rule="evenodd" clip-rule="evenodd" fill="#009E4F" d="M55.316,80.189c1.23-0.428,2.463-0.904,3.658-1.447
			c10.951-4.971,18.6-14.266,21.869-24.951L59.633,39.213L55.316,80.189z"/>
		<path fill-rule="evenodd" clip-rule="evenodd" fill="#00ADED" d="M50.259,81.553l2.71-25.593L16.132,72.703
			C25.422,80.613,38.029,84.016,50.259,81.553L50.259,81.553z"/>
		<path fill-rule="evenodd" clip-rule="evenodd" fill="#C6569E" d="M82.059,48.72l-33.16-22.788l23.539-10.703
			c2.625,2.957,4.84,6.339,6.566,10.113C82.467,32.925,83.352,41.054,82.059,48.72L82.059,48.72z"/>
		<path fill-rule="evenodd" clip-rule="evenodd" fill="#FFFFFF" d="M27.382,19.738C5.262,34.587,15.879,69.009,42.293,69.009
			c26.396,0,37.045-34.396,14.912-49.271C48.258,13.729,36.324,13.732,27.382,19.738L27.382,19.738z"/>
		<g>
			<path fill="#7C1228" d="M51.536,19.938H33.051c-3.063,0-5.546,2.483-5.546,5.546v2.311c0,1.276,1.034,2.311,2.311,2.311l0,0
				c1.277,0,2.311-1.034,2.311-2.311v-2.311c0-0.511,0.414-0.925,0.925-0.925h18.485c0.511,0,0.925,0.414,0.925,0.925v33.274
				c0,0.511-0.414,0.924-0.925,0.924H33.051c-0.511,0-0.925-0.413-0.925-0.924v-2.311c0-1.276-1.033-2.312-2.311-2.312l0,0
				c-1.276,0-2.311,1.035-2.311,2.312v2.311c0,3.063,2.482,5.546,5.546,5.546h18.485c3.063,0,5.545-2.482,5.545-5.546V25.483
				C57.081,22.421,54.599,19.938,51.536,19.938z"/>
			<path fill="#7C1228" d="M28.659,40.817l6.914-6.923c0.347-0.351,0.819-0.547,1.314-0.547c1.02,0.001,1.846,0.829,1.846,1.85
				v3.226h9.18c1.021,0,1.847,0.829,1.847,1.849v3.698c0,1.021-0.826,1.848-1.847,1.848h-9.18v3.227
				c0,0.492-0.196,0.966-0.546,1.314c-0.727,0.718-1.896,0.713-2.614-0.011l-6.914-6.924C27.942,42.702,27.942,41.538,28.659,40.817
				z"/>
		</g>
	</g>
</g>
<g id="Layer_1">
</g>
</svg>
