<?xml version="1.0" encoding="utf-8"?>
<!-- Generator: Adobe Illustrator 16.0.3, SVG Export Plug-In . SVG Version: 6.00 Build 0)  -->
<!DOCTYPE svg PUBLIC "-//W3C//DTD SVG 1.1//EN" "http://www.w3.org/Graphics/SVG/1.1/DTD/svg11.dtd">
<svg version="1.1" xmlns="http://www.w3.org/2000/svg" xmlns:xlink="http://www.w3.org/1999/xlink" x="0px" y="0px"
	 width="84.586px" height="84.241px" viewBox="0 0 84.586 84.241" enable-background="new 0 0 84.586 84.241" xml:space="preserve">
<g id="_x35_">
	<g>
		<g>
			<path fill-rule="evenodd" clip-rule="evenodd" fill="#EF5A70" d="M59.803,5.979L42.089,24.647l39.419,9.134
				C78.939,21.842,71.005,11.469,59.803,5.979L59.803,5.979z"/>
			<path fill-rule="evenodd" clip-rule="evenodd" fill="#ED1B25" d="M54.817,3.79c-1.114-0.354-2.244-0.685-3.417-0.963
				c-11.438-2.65-22.894-0.122-31.902,6.045l7.533,24.833L54.817,3.79z"/>
			<path fill-rule="evenodd" clip-rule="evenodd" fill="#FABA1C" d="M2.094,45.338l25.148,5.845l-11.86-39.079
				c-1.865,1.666-3.58,3.506-5.118,5.509l-0.03,0.039c-3.381,4.407-5.897,9.585-7.237,15.345C2.043,37.149,1.774,41.31,2.094,45.338
				L2.094,45.338z"/>
			<path fill-rule="evenodd" clip-rule="evenodd" fill="#009E4F" d="M29.397,80.333c1.236,0.409,2.504,0.781,3.783,1.078
				c11.715,2.721,23.44,0,32.538-6.487l-7.958-24.477L29.397,80.333z"/>
			<path fill-rule="evenodd" clip-rule="evenodd" fill="#00ADED" d="M24.555,78.336l17.727-18.658L2.862,50.543
				C5.419,62.474,13.352,72.847,24.555,78.336L24.555,78.336z"/>
			<path fill-rule="evenodd" clip-rule="evenodd" fill="#C6569E" d="M69.769,71.639L57.327,33.376l25.191,5.834
				c0.283,3.944-0.018,7.975-0.945,12.021C79.706,59.355,75.461,66.343,69.769,71.639L69.769,71.639z"/>
		</g>
		<path fill-rule="evenodd" clip-rule="evenodd" fill="#FEFEFE" d="M27.322,19.818C5.202,34.667,15.819,69.089,42.233,69.089
			c26.396,0,37.045-34.396,14.912-49.271C48.198,13.808,36.265,13.812,27.322,19.818L27.322,19.818z"/>
		<path fill="#7C1228" d="M51.037,21.729H33.903c-2.839,0-5.141,2.302-5.141,5.14v2.142c0,1.183,0.959,2.142,2.142,2.142l0,0
			c1.184,0,2.142-0.958,2.142-2.142v-2.142c0-0.473,0.384-0.856,0.857-0.856h17.134c0.474,0,0.857,0.383,0.857,0.856v30.842
			c0,0.474-0.384,0.856-0.857,0.856H33.903c-0.474,0-0.857-0.383-0.857-0.856v-2.142c0-1.183-0.958-2.142-2.142-2.142l0,0
			c-1.183,0-2.142,0.959-2.142,2.142v2.142c0,2.839,2.302,5.14,5.141,5.14h17.134c2.839,0,5.141-2.301,5.141-5.14V26.869
			C56.178,24.031,53.876,21.729,51.037,21.729z"/>
		<path fill="#7C1228" d="M19.833,41.082l6.408-6.417c0.321-0.325,0.76-0.507,1.218-0.507c0.946,0,1.712,0.769,1.712,1.714v2.99
			h8.508c0.946,0,1.713,0.768,1.713,1.713v3.427c0,0.946-0.767,1.713-1.713,1.713h-8.508v2.99c0,0.457-0.182,0.895-0.507,1.218
			c-0.673,0.666-1.757,0.661-2.423-0.01l-6.408-6.417C19.168,42.83,19.168,41.75,19.833,41.082z"/>
	</g>
</g>
<g id="Layer_1">
</g>
</svg>
